<svg width="24" height="24" viewBox="0 0 24 24" fill="none" xmlns="http://www.w3.org/2000/svg">
<g clip-path="url(#clip0_563_3226)">
<path d="M12 23.9998C12.7956 23.9998 13.5587 23.6838 14.1213 23.1212C14.6839 22.5586 15 21.7955 15 20.9998H9C9 21.7955 9.31607 22.5586 9.87868 23.1212C10.4413 23.6838 11.2044 23.9998 12 23.9998ZM13.4925 1.64835C13.5134 1.43978 13.4904 1.22914 13.4249 1.03001C13.3595 0.830878 13.253 0.647682 13.1124 0.492235C12.9717 0.336787 12.8001 0.212539 12.6085 0.127504C12.4169 0.0424694 12.2096 -0.00146484 12 -0.00146484C11.7904 -0.00146484 11.5831 0.0424694 11.3915 0.127504C11.1999 0.212539 11.0283 0.336787 10.8876 0.492235C10.747 0.647682 10.6405 0.830878 10.5751 1.03001C10.5096 1.22914 10.4866 1.43978 10.5075 1.64835C8.81208 1.9932 7.28793 2.91339 6.19315 4.2531C5.09836 5.59281 4.50022 7.26971 4.5 8.99985C4.5 10.6468 3.75 17.9998 1.5 19.4998H22.5C20.25 17.9998 19.5 10.6468 19.5 8.99985C19.5 5.36985 16.92 2.33985 13.4925 1.64835V1.64835Z" fill="#C8CBCF"/>
</g>
<defs>
<clipPath id="clip0_563_3226">
<rect width="24" height="24" fill="white"/>
</clipPath>
</defs>
</svg>
