<svg width="24" height="24" viewBox="0 0 24 24" fill="none" xmlns="http://www.w3.org/2000/svg">
<path fill-rule="evenodd" clip-rule="evenodd" d="M5.25 0C5.44891 0 5.63968 0.0790176 5.78033 0.21967C5.92098 0.360322 6 0.551088 6 0.75V1.5H18V0.75C18 0.551088 18.079 0.360322 18.2197 0.21967C18.3603 0.0790176 18.5511 0 18.75 0C18.9489 0 19.1397 0.0790176 19.2803 0.21967C19.421 0.360322 19.5 0.551088 19.5 0.75V1.5H21C21.7956 1.5 22.5587 1.81607 23.1213 2.37868C23.6839 2.94129 24 3.70435 24 4.5V21C24 21.7956 23.6839 22.5587 23.1213 23.1213C22.5587 23.6839 21.7956 24 21 24H3C2.20435 24 1.44129 23.6839 0.87868 23.1213C0.316071 22.5587 0 21.7956 0 21V4.5C0 3.70435 0.316071 2.94129 0.87868 2.37868C1.44129 1.81607 2.20435 1.5 3 1.5H4.5V0.75C4.5 0.551088 4.57902 0.360322 4.71967 0.21967C4.86032 0.0790176 5.05109 0 5.25 0V0ZM3 5.25C3 4.836 3.366 4.5 3.8175 4.5H20.1825C20.6325 4.5 21 4.836 21 5.25V6.75C21 7.164 20.634 7.5 20.181 7.5H3.8175C3.3675 7.5 3 7.164 3 6.75V5.25ZM14.004 19.185C12.339 19.185 11.52 18.0345 11.4495 17.0745H12.474C12.5385 17.6295 13.0545 18.3045 14.0505 18.3045C15.3165 18.3045 16.002 17.0325 16.008 15.0585H15.9675C15.738 15.6795 15.012 16.2435 13.893 16.2435C12.615 16.2435 11.379 15.3285 11.379 13.5885C11.379 11.883 12.6855 10.875 14.0745 10.875C15.8325 10.875 17.004 11.976 17.004 14.877C17.004 17.5845 15.891 19.1835 14.004 19.1835V19.185ZM14.103 15.369C15.0405 15.369 15.879 14.643 15.879 13.599C15.879 12.351 15.0885 11.754 14.139 11.754C13.26 11.754 12.387 12.3345 12.387 13.569C12.387 14.7945 13.2015 15.369 14.103 15.369ZM9.6675 11.034V19.032H8.655V12.117H8.637C8.202 12.351 7.3125 12.897 6.75 13.2825V12.24C7.38126 11.7977 8.03899 11.3945 8.7195 11.0325H9.6675V11.034Z" fill="#C8CBCF"/>
</svg>
