<svg width="25" height="27" viewBox="0 0 25 27" fill="none" xmlns="http://www.w3.org/2000/svg">
<path d="M21.8152 13.2037C21.8152 18.7698 17.5903 23.2594 12.4055 23.2594C7.22079 23.2594 2.99586 18.7698 2.99586 13.2037C2.99586 7.63759 7.22079 3.14796 12.4055 3.14796C17.5903 3.14796 21.8152 7.63759 21.8152 13.2037Z" stroke="#58FF9D" stroke-width="0.400412"/>
<ellipse cx="12.4054" cy="13.2038" rx="8.00823" ry="8.5466" fill="#E6E9EE"/>
<path d="M12.3702 6.64931L17.8758 12.5251C17.9628 12.6179 18.0111 12.7402 18.0111 12.8673V19.1131C18.0111 19.3895 17.787 19.6136 17.5106 19.6136H6.49929C6.22287 19.6136 5.99878 19.3895 5.99878 19.1131V12.8673C5.99878 12.7402 6.04714 12.6179 6.13406 12.5251L11.6397 6.64931C11.8375 6.43826 12.1724 6.43826 12.3702 6.64931Z" fill="#6E01F4"/>
<path fill-rule="evenodd" clip-rule="evenodd" d="M18.4117 7.06078V10.4222C18.4117 10.6602 18.1421 10.7793 17.9845 10.6111L14.8348 7.24964C14.6771 7.08139 14.7888 6.7937 15.0117 6.7937H18.1614C18.2996 6.7937 18.4117 6.91328 18.4117 7.06078ZM15.8787 8.36387L14.3074 10.0408L13.3367 9.00486C13.0435 8.69196 12.5681 8.69196 12.275 9.00486L9.87248 11.5688C9.57929 11.8818 9.57929 12.3891 9.87248 12.702C10.1657 13.0149 10.641 13.0149 10.9342 12.702L12.8058 10.7046L13.7765 11.7405C14.0697 12.0534 14.5451 12.0534 14.8382 11.7405L16.9404 9.497L15.8787 8.36387Z" fill="#58FF9D"/>
<path d="M10.0029 15.8408C10.0029 15.5644 10.227 15.3403 10.5034 15.3403H13.5065C13.783 15.3403 14.007 15.5644 14.007 15.8408V19.6136H10.0029V15.8408Z" fill="#E6E9EE"/>
</svg>
