<svg width="25" height="25" viewBox="0 0 25 25" fill="none" xmlns="http://www.w3.org/2000/svg">
<circle cx="12.1843" cy="12.427" r="9.40967" stroke="#58FF9D" stroke-width="0.400412"/>
<circle cx="12.1843" cy="12.4269" r="8.00823" fill="#E6E9EE"/>
<circle cx="12.1842" cy="12.4268" r="6.40659" fill="#6E01F4"/>
<path d="M11.7582 16.0875C11.0855 16.0875 10.5314 15.937 10.0957 15.6359C9.66649 15.3284 9.45187 14.8991 9.45187 14.3481C9.45187 14.2905 9.45828 14.204 9.47109 14.0887H10.8453C10.8197 14.3578 10.8901 14.5788 11.0567 14.7518C11.2297 14.9247 11.4796 15.0112 11.8063 15.0112C12.133 15.0112 12.3893 14.944 12.5751 14.8094C12.7673 14.6685 12.8634 14.4699 12.8634 14.2136C12.8634 13.9766 12.7641 13.7876 12.5655 13.6466C12.3733 13.5057 12.069 13.3487 11.6525 13.1757C11.2681 13.0156 10.9542 12.8682 10.7108 12.7337C10.4737 12.5991 10.2687 12.4134 10.0957 12.1763C9.92916 11.9329 9.84587 11.6285 9.84587 11.2634C9.84587 10.8469 9.95158 10.485 10.163 10.1775C10.3808 9.86994 10.6755 9.6329 11.0471 9.46633C11.4251 9.29975 11.8543 9.21647 12.3348 9.21647C12.8089 9.21647 13.2189 9.29655 13.5649 9.45672C13.9173 9.61047 14.1799 9.8315 14.3529 10.1198C14.5323 10.4081 14.6092 10.7444 14.5835 11.1288H13.1517L13.1613 11.0231C13.1613 10.8117 13.0812 10.6387 12.921 10.5042C12.7673 10.3697 12.5495 10.3024 12.2676 10.3024C11.9665 10.3024 11.723 10.3729 11.5372 10.5138C11.3514 10.6547 11.2585 10.8469 11.2585 11.0904C11.2585 11.2506 11.3098 11.3915 11.4123 11.5132C11.5212 11.6285 11.6525 11.7311 11.8063 11.8207C11.96 11.904 12.1811 12.0129 12.4694 12.1475C12.8474 12.3141 13.1581 12.471 13.4015 12.6184C13.645 12.7657 13.8532 12.9611 14.0262 13.2046C14.1992 13.448 14.2856 13.7459 14.2856 14.0983C14.2856 14.4827 14.1799 14.8254 13.9685 15.1265C13.7635 15.4277 13.4688 15.6647 13.0844 15.8377C12.7064 16.0042 12.2644 16.0875 11.7582 16.0875Z" fill="#58FF9D"/>
<path d="M12.5847 7.62207V9.22372" stroke="#58FF9D" stroke-width="0.800823" stroke-linecap="round"/>
<path d="M12.1843 15.6301L12.1843 16.431" stroke="#58FF9D" stroke-width="0.800823" stroke-linecap="round"/>
</svg>
