<svg width="24" height="24" viewBox="0 0 24 24" fill="none" xmlns="http://www.w3.org/2000/svg">
<path d="M9.75 16.4924V21.7499C9.75 21.9488 9.67098 22.1396 9.53033 22.2802C9.38968 22.4209 9.19891 22.4999 9 22.4999H3C2.80109 22.4999 2.61032 22.4209 2.46967 22.2802C2.32902 22.1396 2.25 21.9488 2.25 21.7499V11.2499C2.24983 11.1513 2.26908 11.0537 2.30665 10.9626C2.34423 10.8715 2.3994 10.7887 2.469 10.7189L11.469 1.71888C11.5387 1.64903 11.6214 1.59362 11.7126 1.55581C11.8037 1.518 11.9014 1.49854 12 1.49854C12.0987 1.49854 12.1963 1.518 12.2875 1.55581C12.3786 1.59362 12.4613 1.64903 12.531 1.71888L21.531 10.7189C21.6006 10.7887 21.6558 10.8715 21.6934 10.9626C21.7309 11.0537 21.7502 11.1513 21.75 11.2499V21.7499C21.75 21.9488 21.671 22.1396 21.5303 22.2802C21.3897 22.4209 21.1989 22.4999 21 22.4999H15C14.8011 22.4999 14.6103 22.4209 14.4697 22.2802C14.329 22.1396 14.25 21.9488 14.25 21.7499V16.4999C14.25 16.1249 13.875 15.7499 13.5 15.7499H10.5C10.125 15.7499 9.75 16.1249 9.75 16.4924Z" fill="#C8CBCF"/>
<path fill-rule="evenodd" clip-rule="evenodd" d="M19.5 3.75V9L16.5 6V3.75C16.5 3.55109 16.579 3.36032 16.7197 3.21967C16.8603 3.07902 17.0511 3 17.25 3H18.75C18.9489 3 19.1397 3.07902 19.2803 3.21967C19.421 3.36032 19.5 3.55109 19.5 3.75Z" fill="#C8CBCF"/>
</svg>
