<svg width="224" height="32" viewBox="0 0 224 32" fill="none" xmlns="http://www.w3.org/2000/svg">
<path fill-rule="evenodd" clip-rule="evenodd" d="M27.2603 19.6636L29.739 21.9999H29.7405L31.5018 20.34L27.2603 16.3422V19.6636Z" fill="white"/>
<path fill-rule="evenodd" clip-rule="evenodd" d="M27.5334 6.00006L23.8557 10.8642H26.7172L29.4313 7.27421L27.5334 6.00006Z" fill="white"/>
<path fill-rule="evenodd" clip-rule="evenodd" d="M27.2603 14.9192H33.1844V12.5712H27.2603V14.9192Z" fill="white"/>
<path d="M13 21.9866H15.4668V15.8885L17.833 19.1571H20.4005L22.9177 15.8885V21.9866H25.3341V12.5712H22.5653L19.1922 17.0593L15.8192 12.5712H13V21.9866Z" fill="white"/>
<path fill-rule="evenodd" clip-rule="evenodd" d="M61.3335 11.5684H63.718V21.7645H61.3335V11.5684ZM39.9712 14.0407H37.7571V21.7643H40.1172V17.3374C40.1172 16.631 40.4335 15.8775 41.358 15.8775C42.161 15.8775 42.5016 16.3955 42.5016 17.1961V21.7879H44.7887V17.2432C44.7887 16.6074 45.1293 15.901 46.0296 15.901C46.8811 15.901 47.1731 16.4426 47.1731 17.2668V21.7879H49.5332V16.9842C49.5332 15.2417 48.779 13.8288 46.7838 13.8288C45.543 13.8288 44.813 14.5352 44.4237 15.171C44.0831 14.394 43.3532 13.8288 42.1853 13.8288C41.1147 13.8288 40.4335 14.4411 40.0928 15.0297L39.9712 14.0407ZM51.6015 14.0406V18.8443C51.6015 20.5397 52.3558 21.9996 54.4482 21.9761C55.6648 21.9761 56.419 21.3168 56.7597 20.7281L56.8813 21.7642H59.1197V14.0406H56.7353V18.3733C56.7353 19.1268 56.3704 19.9274 55.2511 19.9274C54.3266 19.9274 53.9859 19.3152 53.9859 18.4204V14.0406H51.6015ZM66.4675 15.9247V19.033C66.4675 20.8933 67.5867 22 69.5332 22C71.0417 22 71.8446 21.3407 72.1852 20.54V19.504H70.4821C70.4821 19.6688 70.3604 20.0926 69.7278 20.0926C69.1195 20.0926 68.8519 19.7394 68.8519 18.9624V15.9247H72.0149V14.0409H68.8519V11.5684H66.4918V14.0409H65.2753V15.9247H66.4675ZM73.8154 14.0406H76.1755V21.7642H73.8154V14.0406ZM79.0468 15.9247V19.033C79.0468 20.8933 80.166 22 82.1125 22C83.621 22 84.4239 21.3407 84.7646 20.54V19.504H83.0614C83.0614 19.6688 82.9397 20.0926 82.3071 20.0926C81.6989 20.0926 81.4312 19.7394 81.4312 18.9624V15.9247H84.5942V14.0409H81.4312V11.5684H79.0711V14.0409H77.8546V15.9247H79.0468ZM85.9321 19.598C85.9321 18.138 87.027 17.1961 89.3628 17.1961C90.19 17.1961 90.847 17.3374 90.847 17.3374V17.0077C90.847 16.16 90.4333 15.7126 89.5331 15.7126C88.5112 15.7126 88.1706 16.419 88.1706 16.419H86.3701V15.3829C86.3701 15.3829 87.0514 13.7817 89.5818 13.7817C92.0149 13.7817 93.2314 14.8884 93.2314 17.0548V21.7408H91.0903L90.92 20.7518C90.5307 21.3876 89.8251 21.9527 88.5599 21.9527C86.7837 21.9998 85.9321 20.9166 85.9321 19.598ZM90.847 18.9622V18.6325C90.847 18.6325 90.2874 18.5148 89.5088 18.5148C88.5842 18.5148 88.2679 18.8915 88.2679 19.386C88.2679 19.9747 88.6572 20.2337 89.3141 20.2337C90.3604 20.2337 90.847 19.5273 90.847 18.9622ZM95.0075 19.4331V20.4692C95.2022 20.9637 96.2971 21.9998 98.4868 21.9998C100.652 21.9998 101.893 20.9166 101.893 19.386C101.893 17.9025 100.823 17.3374 99.2897 17.1255L98.2679 16.9842C97.6109 16.8665 97.246 16.6545 97.246 16.2307C97.246 15.8068 97.5623 15.5007 98.3165 15.5007C99.2897 15.5007 99.679 16.16 99.7034 16.3249H101.504V15.2888C101.163 14.5117 100.19 13.8288 98.3652 13.8288C96.3457 13.8288 95.1049 14.8885 95.1049 16.372C95.1049 17.8084 96.0537 18.4912 97.4893 18.6796L98.5112 18.7974C99.2654 18.9151 99.7277 19.1035 99.7277 19.598C99.7277 20.0218 99.4114 20.3279 98.4868 20.3279C97.3919 20.3279 96.8567 19.6686 96.7837 19.4331H95.0075ZM103.669 11.5684H106.054V17.1727L108.73 14.0409H110.774V15.077L108.462 17.7379L111.09 20.7049V21.7645H108.852L106.029 18.4208V21.7645H103.645V11.5684H103.669ZM118 15.8773V14.0406H112.623V21.7642H115.007V15.8773H118Z" fill="white"/>
<path d="M131.42 17.5876C131.42 16.9227 131.57 16.3262 131.87 15.7982C132.17 15.2637 132.577 14.8465 133.092 14.5467C133.614 14.2468 134.191 14.0969 134.823 14.0969C135.566 14.0969 136.215 14.2761 136.769 14.6347C137.323 14.9932 137.727 15.5016 137.981 16.16H136.916C136.727 15.7493 136.453 15.4332 136.094 15.2116C135.742 14.9899 135.319 14.8791 134.823 14.8791C134.347 14.8791 133.92 14.9899 133.542 15.2116C133.164 15.4332 132.868 15.7493 132.652 16.16C132.437 16.5641 132.33 17.04 132.33 17.5876C132.33 18.1286 132.437 18.6044 132.652 19.0151C132.868 19.4193 133.164 19.7321 133.542 19.9538C133.92 20.1754 134.347 20.2862 134.823 20.2862C135.319 20.2862 135.742 20.1787 136.094 19.9636C136.453 19.7419 136.727 19.4258 136.916 19.0151H137.981C137.727 19.667 137.323 20.1721 136.769 20.5307C136.215 20.8827 135.566 21.0587 134.823 21.0587C134.191 21.0587 133.614 20.912 133.092 20.6187C132.577 20.3188 132.17 19.9049 131.87 19.3769C131.57 18.8489 131.42 18.2524 131.42 17.5876ZM144.058 15.6418V21H143.168V20.208C142.999 20.4818 142.761 20.6969 142.454 20.8533C142.154 21.0033 141.822 21.0782 141.457 21.0782C141.04 21.0782 140.665 20.9935 140.333 20.824C140 20.648 139.736 20.3873 139.541 20.0418C139.351 19.6963 139.257 19.2759 139.257 18.7804V15.6418H140.137V18.6631C140.137 19.1911 140.271 19.5985 140.538 19.8853C140.805 20.1656 141.17 20.3058 141.633 20.3058C142.109 20.3058 142.484 20.1591 142.757 19.8658C143.031 19.5724 143.168 19.1455 143.168 18.5849V15.6418H144.058ZM147.457 21.088C147.046 21.088 146.678 21.0196 146.352 20.8827C146.026 20.7393 145.769 20.5437 145.58 20.296C145.391 20.0418 145.286 19.7517 145.267 19.4258H146.186C146.212 19.693 146.336 19.9114 146.558 20.0809C146.786 20.2504 147.082 20.3351 147.447 20.3351C147.786 20.3351 148.054 20.2601 148.249 20.1102C148.445 19.9603 148.542 19.7713 148.542 19.5431C148.542 19.3084 148.438 19.1357 148.23 19.0249C148.021 18.9076 147.698 18.7935 147.262 18.6827C146.864 18.5784 146.538 18.4741 146.284 18.3698C146.036 18.259 145.821 18.0993 145.638 17.8907C145.462 17.6756 145.374 17.3953 145.374 17.0498C145.374 16.776 145.456 16.525 145.619 16.2969C145.782 16.0687 146.013 15.8895 146.313 15.7591C146.613 15.6222 146.955 15.5538 147.34 15.5538C147.933 15.5538 148.412 15.7037 148.777 16.0036C149.142 16.3034 149.338 16.7141 149.364 17.2356H148.474C148.454 16.9553 148.34 16.7304 148.132 16.5609C147.93 16.3914 147.656 16.3067 147.31 16.3067C146.991 16.3067 146.737 16.3751 146.548 16.512C146.359 16.6489 146.264 16.8281 146.264 17.0498C146.264 17.2258 146.32 17.3724 146.43 17.4898C146.548 17.6006 146.691 17.6919 146.861 17.7636C147.037 17.8287 147.278 17.9037 147.584 17.9884C147.969 18.0927 148.282 18.197 148.523 18.3013C148.764 18.3991 148.969 18.549 149.139 18.7511C149.315 18.9532 149.406 19.2172 149.413 19.5431C149.413 19.8364 149.331 20.1004 149.168 20.3351C149.005 20.5698 148.774 20.7556 148.474 20.8924C148.181 21.0228 147.842 21.088 147.457 21.088ZM151.754 16.3751V19.5333C151.754 19.7941 151.809 19.9799 151.92 20.0907C152.031 20.195 152.223 20.2471 152.497 20.2471H153.152V21H152.35C151.855 21 151.484 20.8859 151.236 20.6578C150.988 20.4296 150.864 20.0548 150.864 19.5333V16.3751H150.17V15.6418H150.864V14.2924H151.754V15.6418H153.152V16.3751H151.754ZM156.567 21.088C156.065 21.088 155.609 20.9739 155.198 20.7458C154.794 20.5176 154.475 20.195 154.24 19.7778C154.012 19.3541 153.898 18.8652 153.898 18.3111C153.898 17.7636 154.015 17.2812 154.25 16.864C154.491 16.4403 154.817 16.1176 155.228 15.896C155.638 15.6679 156.098 15.5538 156.606 15.5538C157.115 15.5538 157.574 15.6679 157.985 15.896C158.396 16.1176 158.718 16.437 158.953 16.8542C159.194 17.2714 159.315 17.757 159.315 18.3111C159.315 18.8652 159.191 19.3541 158.943 19.7778C158.702 20.195 158.373 20.5176 157.956 20.7458C157.538 20.9739 157.076 21.088 156.567 21.088ZM156.567 20.3058C156.887 20.3058 157.186 20.2308 157.467 20.0809C157.747 19.931 157.972 19.7061 158.141 19.4062C158.317 19.1064 158.405 18.7413 158.405 18.3111C158.405 17.8809 158.321 17.5159 158.151 17.216C157.982 16.9161 157.76 16.6945 157.486 16.5511C157.213 16.4012 156.916 16.3262 156.597 16.3262C156.271 16.3262 155.971 16.4012 155.697 16.5511C155.43 16.6945 155.215 16.9161 155.052 17.216C154.889 17.5159 154.807 17.8809 154.807 18.3111C154.807 18.7479 154.885 19.1161 155.042 19.416C155.205 19.7159 155.42 19.9407 155.687 20.0907C155.954 20.2341 156.248 20.3058 156.567 20.3058ZM166.928 15.544C167.345 15.544 167.717 15.632 168.043 15.808C168.369 15.9775 168.626 16.235 168.815 16.5804C169.004 16.9259 169.099 17.3464 169.099 17.8418V21H168.219V17.9689C168.219 17.4344 168.085 17.027 167.818 16.7467C167.557 16.4599 167.202 16.3164 166.752 16.3164C166.289 16.3164 165.921 16.4664 165.647 16.7662C165.374 17.0596 165.237 17.4865 165.237 18.0471V21H164.357V17.9689C164.357 17.4344 164.223 17.027 163.956 16.7467C163.695 16.4599 163.34 16.3164 162.89 16.3164C162.427 16.3164 162.059 16.4664 161.785 16.7662C161.511 17.0596 161.374 17.4865 161.374 18.0471V21H160.485V15.6418H161.374V16.4142C161.55 16.1339 161.785 15.9188 162.078 15.7689C162.378 15.619 162.707 15.544 163.066 15.544C163.516 15.544 163.913 15.645 164.259 15.8471C164.604 16.0492 164.862 16.3458 165.031 16.7369C165.181 16.3588 165.429 16.0655 165.774 15.8569C166.12 15.6483 166.505 15.544 166.928 15.544ZM171.018 14.7716C170.849 14.7716 170.705 14.7129 170.588 14.5956C170.47 14.4782 170.412 14.3348 170.412 14.1653C170.412 13.9959 170.47 13.8524 170.588 13.7351C170.705 13.6178 170.849 13.5591 171.018 13.5591C171.181 13.5591 171.318 13.6178 171.429 13.7351C171.546 13.8524 171.605 13.9959 171.605 14.1653C171.605 14.3348 171.546 14.4782 171.429 14.5956C171.318 14.7129 171.181 14.7716 171.018 14.7716ZM171.448 15.6418V21H170.558V15.6418H171.448ZM173.63 20.2667H176.26V21H172.613V20.2667L175.214 16.3653H172.632V15.6418H176.24V16.3653L173.63 20.2667ZM182.303 18.1156C182.303 18.285 182.293 18.4643 182.274 18.6533H177.991C178.024 19.1813 178.203 19.5953 178.529 19.8951C178.861 20.1884 179.262 20.3351 179.732 20.3351C180.116 20.3351 180.436 20.2471 180.69 20.0711C180.951 19.8886 181.133 19.6474 181.237 19.3476H182.196C182.052 19.8625 181.765 20.283 181.335 20.6089C180.905 20.9283 180.37 21.088 179.732 21.088C179.223 21.088 178.767 20.9739 178.363 20.7458C177.965 20.5176 177.652 20.195 177.424 19.7778C177.196 19.3541 177.082 18.8652 177.082 18.3111C177.082 17.757 177.193 17.2714 177.414 16.8542C177.636 16.437 177.946 16.1176 178.343 15.896C178.747 15.6679 179.21 15.5538 179.732 15.5538C180.24 15.5538 180.69 15.6646 181.081 15.8862C181.472 16.1079 181.772 16.4142 181.981 16.8053C182.196 17.1899 182.303 17.6267 182.303 18.1156ZM181.384 17.9298C181.384 17.5908 181.309 17.3007 181.159 17.0596C181.009 16.8119 180.804 16.6261 180.543 16.5022C180.289 16.3719 180.005 16.3067 179.693 16.3067C179.243 16.3067 178.858 16.4501 178.539 16.7369C178.226 17.0237 178.047 17.4213 178.001 17.9298H181.384ZM184.367 16.512C184.524 16.2056 184.746 15.9677 185.032 15.7982C185.326 15.6287 185.681 15.544 186.098 15.544V16.4631H185.863C184.866 16.4631 184.367 17.0041 184.367 18.0862V21H183.478V15.6418H184.367V16.512ZM195.364 14.1849L192.792 21H191.766L189.194 14.1849H190.143L192.284 20.0613L194.425 14.1849H195.364ZM198.565 14.7422V13.9307H200.403V21H199.504V14.7422H198.565ZM202.362 21.0587C202.192 21.0587 202.049 21 201.932 20.8827C201.814 20.7653 201.756 20.6219 201.756 20.4524C201.756 20.283 201.814 20.1396 201.932 20.0222C202.049 19.9049 202.192 19.8462 202.362 19.8462C202.525 19.8462 202.662 19.9049 202.773 20.0222C202.89 20.1396 202.949 20.283 202.949 20.4524C202.949 20.6219 202.89 20.7653 202.773 20.8827C202.662 21 202.525 21.0587 202.362 21.0587ZM203.985 17.392C203.985 16.2708 204.167 15.3973 204.532 14.7716C204.897 14.1393 205.536 13.8231 206.449 13.8231C207.355 13.8231 207.99 14.1393 208.355 14.7716C208.72 15.3973 208.903 16.2708 208.903 17.392C208.903 18.5327 208.72 19.4193 208.355 20.0516C207.99 20.6839 207.355 21 206.449 21C205.536 21 204.897 20.6839 204.532 20.0516C204.167 19.4193 203.985 18.5327 203.985 17.392ZM208.023 17.392C208.023 16.8249 207.984 16.3458 207.906 15.9547C207.834 15.557 207.681 15.2376 207.446 14.9964C207.218 14.7553 206.885 14.6347 206.449 14.6347C206.005 14.6347 205.666 14.7553 205.432 14.9964C205.204 15.2376 205.05 15.557 204.972 15.9547C204.901 16.3458 204.865 16.8249 204.865 17.392C204.865 17.9787 204.901 18.4708 204.972 18.8684C205.05 19.2661 205.204 19.5855 205.432 19.8267C205.666 20.0679 206.005 20.1884 206.449 20.1884C206.885 20.1884 207.218 20.0679 207.446 19.8267C207.681 19.5855 207.834 19.2661 207.906 18.8684C207.984 18.4708 208.023 17.9787 208.023 17.392Z" fill="white"/>
<rect x="125" y="7" width="1" height="20" fill="white"/>
<rect x="0.5" y="0.5" width="223" height="31" rx="1.5" stroke="white"/>
</svg>
