<svg width="25" height="25" viewBox="0 0 25 25" fill="none" xmlns="http://www.w3.org/2000/svg">
<circle cx="12.6265" cy="12.427" r="9.40967" stroke="#58FF9D" stroke-width="0.400412"/>
<circle cx="12.6264" cy="12.4269" r="8.00823" fill="#E6E9EE"/>
<path d="M16.9863 7.2215H16.3634V6.22047C16.3634 6.1099 16.2738 6.02026 16.1632 6.02026H15.3179C15.2074 6.02026 15.1177 6.1099 15.1177 6.22047V7.2215H10.1348V6.22047C10.1348 6.1099 10.0452 6.02026 9.93461 6.02026H9.0893C8.97873 6.02026 8.8891 6.1099 8.8891 6.22047V7.2215H8.26623C7.57486 7.2215 7.02674 7.76205 7.02674 8.42273L7.02051 16.8314C7.02051 17.4921 7.57486 18.0326 8.26623 18.0326H16.9863C17.6715 18.0326 18.232 17.4921 18.232 16.8314V8.42273C18.232 7.76205 17.6715 7.2215 16.9863 7.2215ZM16.9863 16.5511C16.9863 16.7059 16.8608 16.8314 16.706 16.8314H8.54652C8.39172 16.8314 8.26623 16.7059 8.26623 16.5511V10.5049C8.26623 10.3501 8.39172 10.2246 8.54652 10.2246H16.706C16.8608 10.2246 16.9863 10.3501 16.9863 10.5049V16.5511Z" fill="#6E01F4"/>
<path d="M12.8205 11.0115L14.9426 13.0488C14.9977 13.1017 15.0288 13.1747 15.0288 13.251V15.3498C15.0288 15.5046 14.9033 15.6301 14.7485 15.6301H10.5042C10.3494 15.6301 10.2239 15.5046 10.2239 15.3498V13.251C10.2239 13.1747 10.255 13.1017 10.3101 13.0488L12.4322 11.0115C12.5407 10.9074 12.712 10.9074 12.8205 11.0115Z" fill="#58FF9D"/>
<path d="M11.8254 13.3479C11.8254 13.2816 11.8792 13.2278 11.9456 13.2278H13.307C13.3733 13.2278 13.4271 13.2816 13.4271 13.3479V15.6303H11.8254V13.3479Z" fill="#E6E9EE"/>
</svg>
