<svg width="258" height="73" viewBox="0 0 258 73" fill="none" xmlns="http://www.w3.org/2000/svg">
<rect opacity="0.4" x="60.0387" y="22.1648" width="12.2866" height="1.53583" fill="#B591F9"/>
<rect opacity="0.4" x="76.9328" y="20.629" width="12.2866" height="3.07165" fill="#B591F9"/>
<rect opacity="0.4" x="93.059" y="18.3252" width="12.2866" height="5.37539" fill="#B591F9"/>
<rect opacity="0.4" x="109.953" y="15.2538" width="12.2866" height="8.44704" fill="#B591F9"/>
<rect opacity="0.4" x="126.847" y="10.6462" width="12.2866" height="13.0545" fill="#B591F9"/>
<rect opacity="0.4" x="142.973" y="6.03865" width="12.2866" height="17.662" fill="#B591F9"/>
<rect opacity="0.4" x="159.867" y="0.663433" width="12.2866" height="23.0374" fill="#B591F9"/>
<line x1="1.5785" y1="37.5011" x2="256.24" y2="37.5011" stroke="#CCD2DD" stroke-width="1.60165" stroke-linecap="round"/>
<path d="M202.986 37.5011L28.8066 37.5011" stroke="#4F01B0" stroke-width="1.60165"/>
<circle cx="208.992" cy="37.5011" r="5.60576" fill="white" stroke="#4E04AF" stroke-width="1.60165"/>
<circle cx="24.0017" cy="37.5011" r="5.60576" fill="white" stroke="#4E04AF" stroke-width="1.60165"/>
<path d="M17.0543 23.3932H19.3126V24.2773H15.9588V17.5985H17.0543V23.3932ZM22.5255 24.3638C22.0258 24.3638 21.5742 24.2517 21.1705 24.0275C20.7669 23.7968 20.4498 23.4765 20.2192 23.0665C19.9885 22.6501 19.8732 22.1696 19.8732 21.625C19.8732 21.0869 19.9917 20.6096 20.2288 20.1931C20.4658 19.7767 20.7894 19.4564 21.1994 19.2322C21.6094 19.0079 22.0675 18.8958 22.5736 18.8958C23.0797 18.8958 23.5378 19.0079 23.9478 19.2322C24.3578 19.4564 24.6814 19.7767 24.9184 20.1931C25.1554 20.6096 25.274 21.0869 25.274 21.625C25.274 22.1632 25.1522 22.6405 24.9088 23.0569C24.6653 23.4733 24.3322 23.7968 23.9094 24.0275C23.4929 24.2517 23.0317 24.3638 22.5255 24.3638ZM22.5255 23.4125C22.8074 23.4125 23.0701 23.3452 23.3136 23.2106C23.5634 23.0761 23.7652 22.8743 23.919 22.6052C24.0727 22.3361 24.1496 22.0094 24.1496 21.625C24.1496 21.2406 24.0759 20.9171 23.9286 20.6544C23.7812 20.3853 23.5858 20.1835 23.3424 20.049C23.0989 19.9145 22.8363 19.8472 22.5544 19.8472C22.2725 19.8472 22.0098 19.9145 21.7664 20.049C21.5293 20.1835 21.3403 20.3853 21.1994 20.6544C21.0584 20.9171 20.988 21.2406 20.988 21.625C20.988 22.1952 21.1321 22.6373 21.4204 22.9512C21.7151 23.2587 22.0835 23.4125 22.5255 23.4125ZM33.4683 18.9823L31.825 24.2773H30.6718L29.6051 20.3661L28.5384 24.2773H27.3852L25.7323 18.9823H26.8471L27.9522 23.2395L29.0766 18.9823H30.2201L31.2964 23.2203L32.392 18.9823H33.4683Z" fill="#CCD2DD"/>
<path d="M207.256 17.5985V24.2773H206.16V19.703L204.123 24.2773H203.364L201.317 19.703V24.2773H200.221V17.5985H201.404L203.748 22.8359L206.084 17.5985H207.256ZM208.331 21.6058C208.331 21.074 208.44 20.6032 208.657 20.1931C208.882 19.7831 209.183 19.466 209.561 19.2418C209.945 19.0111 210.368 18.8958 210.829 18.8958C211.246 18.8958 211.608 18.9791 211.915 19.1457C212.229 19.3058 212.479 19.5076 212.665 19.7511V18.9823H213.77V24.2773H212.665V23.4893C212.479 23.7392 212.226 23.9474 211.906 24.114C211.585 24.2805 211.22 24.3638 210.81 24.3638C210.355 24.3638 209.939 24.2485 209.561 24.0179C209.183 23.7808 208.882 23.4541 208.657 23.0377C208.44 22.6148 208.331 22.1375 208.331 21.6058ZM212.665 21.625C212.665 21.2598 212.588 20.9427 212.434 20.6736C212.287 20.4046 212.091 20.1995 211.848 20.0586C211.604 19.9177 211.342 19.8472 211.06 19.8472C210.778 19.8472 210.515 19.9177 210.272 20.0586C210.028 20.1931 209.83 20.3949 209.676 20.664C209.529 20.9267 209.455 21.2406 209.455 21.6058C209.455 21.971 209.529 22.2913 209.676 22.5668C209.83 22.8423 210.028 23.0537 210.272 23.201C210.522 23.342 210.784 23.4125 211.06 23.4125C211.342 23.4125 211.604 23.342 211.848 23.201C212.091 23.0601 212.287 22.8551 212.434 22.586C212.588 22.3105 212.665 21.9902 212.665 21.625ZM217.477 21.5962L219.187 24.2773H217.948L216.804 22.4803L215.728 24.2773H214.584L216.295 21.6731L214.584 18.9823H215.824L216.967 20.7793L218.044 18.9823H219.187L217.477 21.5962Z" fill="#CCD2DD"/>
<path d="M13.7558 67.4252C13.7558 67.9249 13.6261 68.3958 13.3666 68.8379C13.1167 69.2703 12.7419 69.6307 12.2422 69.919C11.7521 70.1977 11.1707 70.361 10.498 70.4091V71.5767H9.57549V70.3947C8.61451 70.3082 7.84091 70.0199 7.25471 69.5298C6.6685 69.0301 6.36579 68.3574 6.34657 67.5117H8.5088C8.56646 68.2036 8.92202 68.6216 9.57549 68.7658V66.0126C8.88358 65.8396 8.32621 65.6666 7.90337 65.4936C7.48054 65.3207 7.11536 65.042 6.80785 64.6576C6.50033 64.2732 6.34657 63.7494 6.34657 63.0864C6.34657 62.2503 6.64448 61.568 7.24029 61.0395C7.84571 60.5109 8.62412 60.2082 9.57549 60.1313V58.9637H10.498V60.1313C11.4206 60.2082 12.1557 60.4869 12.7035 60.9674C13.2609 61.4479 13.5732 62.111 13.6405 62.9566H11.4638C11.435 62.6779 11.3341 62.4377 11.1611 62.2359C10.9978 62.0245 10.7767 61.8755 10.498 61.789V64.5134C11.2188 64.696 11.7858 64.8738 12.199 65.0468C12.6218 65.2101 12.987 65.484 13.2945 65.8684C13.602 66.2432 13.7558 66.7621 13.7558 67.4252ZM8.45114 62.9855C8.45114 63.3026 8.54724 63.562 8.73943 63.7639C8.93163 63.9561 9.21032 64.1146 9.57549 64.2395V61.7458C9.22954 61.7938 8.95566 61.9236 8.75385 62.135C8.55204 62.3464 8.45114 62.6299 8.45114 62.9855ZM10.498 68.7946C10.8632 68.7274 11.1467 68.5784 11.3485 68.3478C11.5599 68.1171 11.6656 67.8384 11.6656 67.5117C11.6656 67.1946 11.5647 66.9399 11.3629 66.7477C11.1611 66.5555 10.8728 66.397 10.498 66.272V68.7946ZM16.4124 68.0451C17.3349 67.2763 18.0701 66.6372 18.6179 66.1279C19.1656 65.609 19.6221 65.0708 19.9873 64.5134C20.3524 63.9561 20.535 63.4083 20.535 62.8701C20.535 62.38 20.4197 61.9956 20.1891 61.717C19.9584 61.4383 19.6029 61.2989 19.1224 61.2989C18.6419 61.2989 18.2719 61.4623 18.0124 61.789C17.753 62.1062 17.6184 62.5434 17.6088 63.1008H15.6484C15.6869 61.9476 16.028 61.0731 16.6719 60.4773C17.3253 59.8815 18.1518 59.5836 19.1512 59.5836C20.2467 59.5836 21.0876 59.8767 21.6738 60.4629C22.26 61.0395 22.5531 61.8034 22.5531 62.7548C22.5531 63.5044 22.3513 64.2203 21.9477 64.9026C21.5441 65.5849 21.0828 66.1807 20.5639 66.6901C20.0449 67.1898 19.3674 67.7952 18.5314 68.5063H22.7837V70.1784H15.6628V68.6793L16.4124 68.0451ZM24.0842 62.5818C24.1323 61.6209 24.4686 60.8809 25.0933 60.362C25.7275 59.8334 26.5588 59.5691 27.587 59.5691C28.2886 59.5691 28.8892 59.6941 29.3889 59.9439C29.8886 60.1842 30.2634 60.5157 30.5132 60.9386C30.7727 61.3518 30.9024 61.8227 30.9024 62.3512C30.9024 62.9566 30.7439 63.4708 30.4268 63.8936C30.1192 64.3068 29.7493 64.5855 29.3168 64.7296V64.7873C29.8742 64.9603 30.3066 65.2678 30.6141 65.7099C30.9313 66.1519 31.0898 66.7189 31.0898 67.4108C31.0898 67.9874 30.9553 68.5015 30.6862 68.9532C30.4268 69.4049 30.0376 69.7604 29.5186 70.0199C29.0093 70.2697 28.3943 70.3947 27.6735 70.3947C26.5876 70.3947 25.7035 70.1208 25.0212 69.573C24.3389 69.0253 23.9785 68.218 23.9401 67.1513H25.9005C25.9197 67.6222 26.0783 68.0018 26.3762 68.2901C26.6837 68.5688 27.1017 68.7081 27.6303 68.7081C28.1204 68.7081 28.4952 68.5736 28.7546 68.3045C29.0237 68.0258 29.1582 67.6703 29.1582 67.2378C29.1582 66.6612 28.9757 66.248 28.6105 65.9982C28.2453 65.7483 27.6783 65.6234 26.9095 65.6234H26.4915V63.9657H26.9095C28.2741 63.9657 28.9564 63.5092 28.9564 62.5963C28.9564 62.183 28.8315 61.8611 28.5817 61.6305C28.3414 61.3998 27.9906 61.2845 27.5294 61.2845C27.0777 61.2845 26.727 61.4094 26.4771 61.6593C26.2368 61.8995 26.0975 62.2071 26.0591 62.5818H24.0842ZM35.1207 68.2036L33.4342 72.2542H32.1368L33.0738 68.2036H35.1207ZM36.0995 61.6737V59.8142H39.5735V70.3226H37.4978V61.6737H36.0995ZM41.5672 64.9315C41.5672 63.2689 41.8651 61.9668 42.4609 61.025C43.0663 60.0833 44.0657 59.6124 45.4592 59.6124C46.8526 59.6124 47.8472 60.0833 48.443 61.025C49.0484 61.9668 49.3512 63.2689 49.3512 64.9315C49.3512 66.6036 49.0484 67.9153 48.443 68.8667C47.8472 69.8181 46.8526 70.2938 45.4592 70.2938C44.0657 70.2938 43.0663 69.8181 42.4609 68.8667C41.8651 67.9153 41.5672 66.6036 41.5672 64.9315ZM47.3619 64.9315C47.3619 64.2203 47.3139 63.6245 47.2178 63.144C47.1313 62.6539 46.9487 62.2551 46.67 61.9476C46.4009 61.6401 45.9973 61.4863 45.4592 61.4863C44.921 61.4863 44.5126 61.6401 44.2339 61.9476C43.9648 62.2551 43.7822 62.6539 43.6861 63.144C43.5996 63.6245 43.5564 64.2203 43.5564 64.9315C43.5564 65.6618 43.5996 66.2768 43.6861 66.7766C43.7726 67.2667 43.9552 67.6655 44.2339 67.973C44.5126 68.2709 44.921 68.4198 45.4592 68.4198C45.9973 68.4198 46.4057 68.2709 46.6844 67.973C46.9631 67.6655 47.1457 67.2667 47.2322 66.7766C47.3187 66.2768 47.3619 65.6618 47.3619 64.9315ZM50.8861 64.9315C50.8861 63.2689 51.184 61.9668 51.7798 61.025C52.3853 60.0833 53.3847 59.6124 54.7781 59.6124C56.1715 59.6124 57.1662 60.0833 57.762 61.025C58.3674 61.9668 58.6701 63.2689 58.6701 64.9315C58.6701 66.6036 58.3674 67.9153 57.762 68.8667C57.1662 69.8181 56.1715 70.2938 54.7781 70.2938C53.3847 70.2938 52.3853 69.8181 51.7798 68.8667C51.184 67.9153 50.8861 66.6036 50.8861 64.9315ZM56.6809 64.9315C56.6809 64.2203 56.6328 63.6245 56.5367 63.144C56.4502 62.6539 56.2676 62.2551 55.989 61.9476C55.7199 61.6401 55.3163 61.4863 54.7781 61.4863C54.24 61.4863 53.8315 61.6401 53.5529 61.9476C53.2838 62.2551 53.1012 62.6539 53.0051 63.144C52.9186 63.6245 52.8754 64.2203 52.8754 64.9315C52.8754 65.6618 52.9186 66.2768 53.0051 66.7766C53.0916 67.2667 53.2742 67.6655 53.5529 67.973C53.8315 68.2709 54.24 68.4198 54.7781 68.4198C55.3163 68.4198 55.7247 68.2709 56.0034 67.973C56.2821 67.6655 56.4646 67.2667 56.5511 66.7766C56.6376 66.2768 56.6809 65.6618 56.6809 64.9315Z" fill="black"/>
<path d="M187.737 67.4252C187.737 67.9249 187.607 68.3958 187.348 68.8379C187.098 69.2703 186.723 69.6307 186.224 69.919C185.734 70.1977 185.152 70.361 184.479 70.4091V71.5767H183.557V70.3947C182.596 70.3082 181.822 70.0199 181.236 69.5298C180.65 69.0301 180.347 68.3574 180.328 67.5117H182.49C182.548 68.2036 182.903 68.6216 183.557 68.7658V66.0126C182.865 65.8396 182.308 65.6666 181.885 65.4936C181.462 65.3207 181.097 65.042 180.789 64.6576C180.482 64.2732 180.328 63.7494 180.328 63.0864C180.328 62.2503 180.626 61.568 181.222 61.0395C181.827 60.5109 182.606 60.2082 183.557 60.1313V58.9637H184.479V60.1313C185.402 60.2082 186.137 60.4869 186.685 60.9674C187.242 61.4479 187.555 62.111 187.622 62.9566H185.445C185.416 62.6779 185.315 62.4377 185.143 62.2359C184.979 62.0245 184.758 61.8755 184.479 61.789V64.5134C185.2 64.696 185.767 64.8738 186.18 65.0468C186.603 65.2101 186.968 65.484 187.276 65.8684C187.583 66.2432 187.737 66.7621 187.737 67.4252ZM182.433 62.9855C182.433 63.3026 182.529 63.562 182.721 63.7639C182.913 63.9561 183.192 64.1146 183.557 64.2395V61.7458C183.211 61.7938 182.937 61.9236 182.735 62.135C182.533 62.3464 182.433 62.6299 182.433 62.9855ZM184.479 68.7946C184.845 68.7274 185.128 68.5784 185.33 68.3478C185.541 68.1171 185.647 67.8384 185.647 67.5117C185.647 67.1946 185.546 66.9399 185.344 66.7477C185.143 66.5555 184.854 66.397 184.479 66.272V68.7946ZM189.788 62.5818C189.836 61.6209 190.173 60.8809 190.797 60.362C191.432 59.8334 192.263 59.5691 193.291 59.5691C193.993 59.5691 194.593 59.6941 195.093 59.9439C195.593 60.1842 195.968 60.5157 196.217 60.9386C196.477 61.3518 196.607 61.8227 196.607 62.3512C196.607 62.9566 196.448 63.4708 196.131 63.8936C195.823 64.3068 195.453 64.5855 195.021 64.7296V64.7873C195.578 64.9603 196.011 65.2678 196.318 65.7099C196.635 66.1519 196.794 66.7189 196.794 67.4108C196.794 67.9874 196.659 68.5015 196.39 68.9532C196.131 69.4049 195.742 69.7604 195.223 70.0199C194.713 70.2697 194.098 70.3947 193.378 70.3947C192.292 70.3947 191.408 70.1208 190.725 69.573C190.043 69.0253 189.683 68.218 189.644 67.1513H191.605C191.624 67.6222 191.782 68.0018 192.08 68.2901C192.388 68.5688 192.806 68.7081 193.334 68.7081C193.825 68.7081 194.199 68.5736 194.459 68.3045C194.728 68.0258 194.862 67.6703 194.862 67.2378C194.862 66.6612 194.68 66.248 194.315 65.9982C193.949 65.7483 193.382 65.6234 192.614 65.6234H192.196V63.9657H192.614C193.978 63.9657 194.661 63.5092 194.661 62.5963C194.661 62.183 194.536 61.8611 194.286 61.6305C194.046 61.3998 193.695 61.2845 193.234 61.2845C192.782 61.2845 192.431 61.4094 192.181 61.6593C191.941 61.8995 191.802 62.2071 191.763 62.5818H189.788ZM200.147 64.7585C199.186 64.2588 198.706 63.4852 198.706 62.4377C198.706 61.9188 198.836 61.4479 199.095 61.025C199.364 60.5926 199.763 60.2514 200.291 60.0016C200.83 59.7421 201.483 59.6124 202.252 59.6124C203.021 59.6124 203.669 59.7421 204.198 60.0016C204.736 60.2514 205.135 60.5926 205.394 61.025C205.663 61.4479 205.798 61.9188 205.798 62.4377C205.798 62.9662 205.668 63.4323 205.409 63.8359C205.149 64.2299 204.803 64.5375 204.371 64.7585C204.899 64.9891 205.313 65.3255 205.611 65.7675C205.908 66.2096 206.057 66.7333 206.057 67.3387C206.057 67.9922 205.889 68.564 205.553 69.0541C205.226 69.5346 204.774 69.9046 204.198 70.164C203.621 70.4235 202.973 70.5532 202.252 70.5532C201.531 70.5532 200.882 70.4235 200.306 70.164C199.739 69.9046 199.287 69.5346 198.951 69.0541C198.624 68.564 198.461 67.9922 198.461 67.3387C198.461 66.7333 198.61 66.2096 198.908 65.7675C199.206 65.3159 199.619 64.9795 200.147 64.7585ZM203.838 62.726C203.838 62.2551 203.693 61.8899 203.405 61.6305C203.126 61.371 202.742 61.2413 202.252 61.2413C201.771 61.2413 201.387 61.371 201.099 61.6305C200.82 61.8899 200.681 62.2599 200.681 62.7404C200.681 63.1728 200.825 63.5188 201.113 63.7783C201.411 64.0377 201.791 64.1675 202.252 64.1675C202.713 64.1675 203.093 64.0377 203.391 63.7783C203.689 63.5092 203.838 63.1584 203.838 62.726ZM202.252 65.6378C201.704 65.6378 201.257 65.7771 200.911 66.0558C200.575 66.3345 200.407 66.7333 200.407 67.2522C200.407 67.7327 200.57 68.1267 200.897 68.4343C201.233 68.7322 201.685 68.8811 202.252 68.8811C202.819 68.8811 203.266 68.7274 203.592 68.4198C203.919 68.1123 204.083 67.7231 204.083 67.2522C204.083 66.7429 203.914 66.3489 203.578 66.0702C203.242 65.7819 202.8 65.6378 202.252 65.6378ZM210.087 68.2036L208.401 72.2542H207.104L208.041 68.2036H210.087ZM213.647 67.3676C213.723 67.7904 213.896 68.1171 214.166 68.3478C214.444 68.5688 214.814 68.6793 215.275 68.6793C215.871 68.6793 216.304 68.4343 216.573 67.9442C216.842 67.4444 216.976 66.6084 216.976 65.436C216.755 65.7435 216.443 65.9837 216.039 66.1567C215.645 66.3297 215.218 66.4162 214.757 66.4162C214.141 66.4162 213.584 66.2913 213.084 66.0414C212.594 65.7819 212.205 65.4023 211.917 64.9026C211.629 64.3933 211.484 63.7783 211.484 63.0575C211.484 61.9908 211.801 61.1452 212.436 60.5205C213.07 59.8863 213.935 59.5691 215.03 59.5691C216.395 59.5691 217.356 60.0064 217.913 60.8809C218.48 61.7554 218.764 63.0719 218.764 64.8306C218.764 66.0798 218.653 67.1033 218.432 67.9009C218.221 68.6985 217.851 69.304 217.322 69.7172C216.803 70.1304 216.092 70.337 215.189 70.337C214.478 70.337 213.872 70.2025 213.373 69.9334C212.873 69.6547 212.489 69.2943 212.22 68.8523C211.96 68.4006 211.811 67.9057 211.773 67.3676H213.647ZM215.175 64.7729C215.674 64.7729 216.068 64.6191 216.357 64.3116C216.645 64.0041 216.789 63.5909 216.789 63.0719C216.789 62.505 216.635 62.0677 216.328 61.7602C216.03 61.4431 215.621 61.2845 215.102 61.2845C214.584 61.2845 214.17 61.4479 213.863 61.7746C213.565 62.0917 213.416 62.5146 213.416 63.0431C213.416 63.5524 213.56 63.9705 213.848 64.2972C214.146 64.6143 214.588 64.7729 215.175 64.7729ZM220.248 68.2757V66.6901L224.962 59.9439H227.311V66.5171H228.58V68.2757H227.311V70.3226H225.293V68.2757H220.248ZM225.423 62.1062L222.468 66.5171H225.423V62.1062ZM229.865 64.9315C229.865 63.2689 230.163 61.9668 230.759 61.025C231.364 60.0833 232.363 59.6124 233.757 59.6124C235.15 59.6124 236.145 60.0833 236.741 61.025C237.346 61.9668 237.649 63.2689 237.649 64.9315C237.649 66.6036 237.346 67.9153 236.741 68.8667C236.145 69.8181 235.15 70.2938 233.757 70.2938C232.363 70.2938 231.364 69.8181 230.759 68.8667C230.163 67.9153 229.865 66.6036 229.865 64.9315ZM235.66 64.9315C235.66 64.2203 235.612 63.6245 235.515 63.144C235.429 62.6539 235.246 62.2551 234.968 61.9476C234.699 61.6401 234.295 61.4863 233.757 61.4863C233.219 61.4863 232.81 61.6401 232.532 61.9476C232.262 62.2551 232.08 62.6539 231.984 63.144C231.897 63.6245 231.854 64.2203 231.854 64.9315C231.854 65.6618 231.897 66.2768 231.984 66.7766C232.07 67.2667 232.253 67.6655 232.532 67.973C232.81 68.2709 233.219 68.4198 233.757 68.4198C234.295 68.4198 234.703 68.2709 234.982 67.973C235.261 67.6655 235.443 67.2667 235.53 66.7766C235.616 66.2768 235.66 65.6618 235.66 64.9315Z" fill="black"/>
</svg>
