<svg width="257" height="73" viewBox="0 0 257 73" fill="none" xmlns="http://www.w3.org/2000/svg">
<line x1="1.02055" y1="37.0986" x2="255.682" y2="37.0986" stroke="#CCD2DD" stroke-width="1.60165" stroke-linecap="round"/>
<rect opacity="0.4" x="51.4727" y="21.7625" width="12.2866" height="1.53583" fill="#B591F9"/>
<rect opacity="0.4" x="68.3667" y="20.2266" width="12.2866" height="3.07165" fill="#B591F9"/>
<rect opacity="0.4" x="84.4929" y="17.9229" width="12.2866" height="5.37539" fill="#B591F9"/>
<rect opacity="0.4" x="101.387" y="14.8513" width="12.2866" height="8.44704" fill="#B591F9"/>
<rect opacity="0.4" x="118.281" y="10.2437" width="12.2866" height="13.0545" fill="#B591F9"/>
<rect opacity="0.4" x="134.407" y="5.63623" width="12.2866" height="17.662" fill="#B591F9"/>
<rect opacity="0.4" x="151.301" y="0.260742" width="12.2866" height="23.0374" fill="#B591F9"/>
<path d="M191.617 37.0988L23.4438 37.0988" stroke="#4F01B0" stroke-width="1.60165"/>
<circle cx="191.617" cy="37.0987" r="5.60576" fill="white" stroke="#4E04AF" stroke-width="1.60165"/>
<circle cx="23.4437" cy="37.0987" r="5.60576" fill="white" stroke="#4E04AF" stroke-width="1.60165"/>
<path d="M16.4964 22.9909H18.7547V23.875H15.4009V17.1961H16.4964V22.9909ZM21.9676 23.9615C21.4679 23.9615 21.0163 23.8494 20.6126 23.6251C20.209 23.3945 19.8919 23.0742 19.6613 22.6642C19.4306 22.2477 19.3153 21.7672 19.3153 21.2227C19.3153 20.6845 19.4338 20.2072 19.6709 19.7908C19.9079 19.3744 20.2315 19.054 20.6415 18.8298C21.0515 18.6056 21.5096 18.4935 22.0157 18.4935C22.5218 18.4935 22.9799 18.6056 23.3899 18.8298C23.7999 19.054 24.1235 19.3744 24.3605 19.7908C24.5975 20.2072 24.7161 20.6845 24.7161 21.2227C24.7161 21.7608 24.5943 22.2381 24.3509 22.6545C24.1074 23.071 23.7743 23.3945 23.3515 23.6251C22.935 23.8494 22.4738 23.9615 21.9676 23.9615ZM21.9676 23.0101C22.2495 23.0101 22.5122 22.9428 22.7557 22.8083C23.0055 22.6738 23.2073 22.472 23.3611 22.2029C23.5148 21.9338 23.5917 21.6071 23.5917 21.2227C23.5917 20.8383 23.518 20.5147 23.3707 20.2521C23.2233 19.983 23.0279 19.7812 22.7845 19.6467C22.541 19.5121 22.2784 19.4448 21.9965 19.4448C21.7146 19.4448 21.4519 19.5121 21.2085 19.6467C20.9714 19.7812 20.7824 19.983 20.6415 20.2521C20.5005 20.5147 20.4301 20.8383 20.4301 21.2227C20.4301 21.7929 20.5742 22.2349 20.8625 22.5488C21.1572 22.8564 21.5256 23.0101 21.9676 23.0101ZM32.9104 18.58L31.2671 23.875H30.1139L29.0472 19.9638L27.9805 23.875H26.8273L25.1744 18.58H26.2892L27.3943 22.8371L28.5187 18.58H29.6622L30.7385 22.8179L31.8341 18.58H32.9104Z" fill="#CCD2DD"/>
<path d="M189.08 17.1961V23.875H187.985V19.3007L185.947 23.875H185.188L183.141 19.3007V23.875H182.046V17.1961H183.228L185.572 22.4335L187.908 17.1961H189.08ZM190.155 21.2035C190.155 20.6717 190.264 20.2008 190.482 19.7908C190.706 19.3808 191.007 19.0637 191.385 18.8394C191.769 18.6088 192.192 18.4935 192.653 18.4935C193.07 18.4935 193.432 18.5768 193.739 18.7433C194.053 18.9035 194.303 19.1053 194.489 19.3487V18.58H195.594V23.875H194.489V23.087C194.303 23.3368 194.05 23.5451 193.73 23.7116C193.409 23.8782 193.044 23.9615 192.634 23.9615C192.179 23.9615 191.763 23.8462 191.385 23.6155C191.007 23.3785 190.706 23.0518 190.482 22.6353C190.264 22.2125 190.155 21.7352 190.155 21.2035ZM194.489 21.2227C194.489 20.8575 194.412 20.5404 194.258 20.2713C194.111 20.0022 193.915 19.7972 193.672 19.6563C193.429 19.5153 193.166 19.4448 192.884 19.4448C192.602 19.4448 192.339 19.5153 192.096 19.6563C191.853 19.7908 191.654 19.9926 191.5 20.2617C191.353 20.5244 191.279 20.8383 191.279 21.2035C191.279 21.5686 191.353 21.889 191.5 22.1644C191.654 22.4399 191.853 22.6513 192.096 22.7987C192.346 22.9396 192.609 23.0101 192.884 23.0101C193.166 23.0101 193.429 22.9396 193.672 22.7987C193.915 22.6577 194.111 22.4527 194.258 22.1837C194.412 21.9082 194.489 21.5878 194.489 21.2227ZM199.301 21.1938L201.011 23.875H199.772L198.628 22.078L197.552 23.875H196.408L198.119 21.2707L196.408 18.58H197.648L198.792 20.377L199.868 18.58H201.011L199.301 21.1938Z" fill="#CCD2DD"/>
<path d="M13.1981 67.0228C13.1981 67.5225 13.0684 67.9934 12.8089 68.4354C12.559 68.8679 12.1843 69.2283 11.6845 69.5166C11.1944 69.7952 10.613 69.9586 9.94036 70.0067V71.1743H9.01781V69.9922C8.05682 69.9058 7.28322 69.6175 6.69702 69.1274C6.11082 68.6276 5.80811 67.9549 5.78889 67.1093H7.95111C8.00877 67.8012 8.36434 68.2192 9.01781 68.3634V65.6101C8.3259 65.4372 7.76852 65.2642 7.34569 65.0912C6.92285 64.9182 6.55768 64.6395 6.25016 64.2551C5.94265 63.8707 5.78889 63.347 5.78889 62.6839C5.78889 61.8479 6.08679 61.1656 6.68261 60.637C7.28803 60.1085 8.06643 59.8058 9.01781 59.7289V58.5613H9.94036V59.7289C10.8629 59.8058 11.5981 60.0845 12.1458 60.5649C12.7032 61.0454 13.0155 61.7085 13.0828 62.5542H10.9061C10.8773 62.2755 10.7764 62.0353 10.6034 61.8335C10.4401 61.622 10.219 61.4731 9.94036 61.3866V64.111C10.6611 64.2936 11.2281 64.4714 11.6413 64.6443C12.0641 64.8077 12.4293 65.0816 12.7368 65.466C13.0443 65.8408 13.1981 66.3597 13.1981 67.0228ZM7.89345 62.583C7.89345 62.9001 7.98955 63.1596 8.18175 63.3614C8.37395 63.5536 8.65263 63.7122 9.01781 63.8371V61.3433C8.67185 61.3914 8.39797 61.5211 8.19616 61.7325C7.99436 61.944 7.89345 62.2275 7.89345 62.583ZM9.94036 68.3922C10.3055 68.3249 10.589 68.176 10.7908 67.9453C11.0022 67.7147 11.108 67.436 11.108 67.1093C11.108 66.7922 11.0071 66.5375 10.8052 66.3453C10.6034 66.1531 10.3151 65.9945 9.94036 65.8696V68.3922ZM15.2493 62.1794C15.2973 61.2184 15.6337 60.4785 16.2583 59.9595C16.8926 59.431 17.7238 59.1667 18.7521 59.1667C19.4536 59.1667 20.0542 59.2916 20.5539 59.5415C21.0537 59.7817 21.4284 60.1133 21.6783 60.5361C21.9378 60.9493 22.0675 61.4202 22.0675 61.9488C22.0675 62.5542 21.9089 63.0683 21.5918 63.4912C21.2843 63.9044 20.9143 64.1831 20.4819 64.3272V64.3849C21.0392 64.5579 21.4717 64.8654 21.7792 65.3074C22.0963 65.7495 22.2549 66.3165 22.2549 67.0084C22.2549 67.585 22.1204 68.0991 21.8513 68.5508C21.5918 69.0024 21.2026 69.358 20.6837 69.6175C20.1744 69.8673 19.5593 69.9922 18.8386 69.9922C17.7527 69.9922 16.8686 69.7184 16.1863 69.1706C15.504 68.6228 15.1436 67.8156 15.1051 66.7489H17.0656C17.0848 67.2198 17.2433 67.5994 17.5412 67.8877C17.8488 68.1664 18.2668 68.3057 18.7953 68.3057C19.2854 68.3057 19.6602 68.1712 19.9197 67.9021C20.1888 67.6234 20.3233 67.2678 20.3233 66.8354C20.3233 66.2588 20.1407 65.8456 19.7755 65.5957C19.4104 65.3459 18.8434 65.2209 18.0746 65.2209H17.6566V63.5632H18.0746C19.4392 63.5632 20.1215 63.1068 20.1215 62.1938C20.1215 61.7806 19.9966 61.4587 19.7467 61.228C19.5065 60.9974 19.1557 60.8821 18.6944 60.8821C18.2428 60.8821 17.892 61.007 17.6421 61.2569C17.4019 61.4971 17.2626 61.8046 17.2241 62.1794H15.2493ZM25.6083 64.356C24.6473 63.8563 24.1668 63.0827 24.1668 62.0353C24.1668 61.5163 24.2965 61.0454 24.556 60.6226C24.825 60.1902 25.2239 59.849 25.7524 59.5992C26.2906 59.3397 26.944 59.21 27.7128 59.21C28.4816 59.21 29.1303 59.3397 29.6588 59.5992C30.197 59.849 30.5958 60.1902 30.8552 60.6226C31.1243 61.0454 31.2589 61.5163 31.2589 62.0353C31.2589 62.5638 31.1291 63.0299 30.8697 63.4335C30.6102 63.8275 30.2642 64.135 29.8318 64.356C30.3603 64.5867 30.7736 64.923 31.0715 65.3651C31.3694 65.8071 31.5183 66.3309 31.5183 66.9363C31.5183 67.5898 31.3502 68.1616 31.0138 68.6517C30.6871 69.1322 30.2354 69.5021 29.6588 69.7616C29.0822 70.0211 28.4336 70.1508 27.7128 70.1508C26.9921 70.1508 26.3434 70.0211 25.7668 69.7616C25.1998 69.5021 24.7482 69.1322 24.4118 68.6517C24.0851 68.1616 23.9217 67.5898 23.9217 66.9363C23.9217 66.3309 24.0707 65.8071 24.3686 65.3651C24.6665 64.9134 25.0797 64.5771 25.6083 64.356ZM29.2984 62.3236C29.2984 61.8527 29.1543 61.4875 28.866 61.228C28.5873 60.9686 28.2029 60.8388 27.7128 60.8388C27.2323 60.8388 26.8479 60.9686 26.5596 61.228C26.2809 61.4875 26.1416 61.8575 26.1416 62.338C26.1416 62.7704 26.2857 63.1164 26.574 63.3758C26.8719 63.6353 27.2515 63.765 27.7128 63.765C28.1741 63.765 28.5537 63.6353 28.8516 63.3758C29.1495 63.1068 29.2984 62.756 29.2984 62.3236ZM27.7128 65.2353C27.1651 65.2353 26.7182 65.3747 26.3722 65.6534C26.0359 65.9321 25.8677 66.3309 25.8677 66.8498C25.8677 67.3303 26.0311 67.7243 26.3578 68.0318C26.6942 68.3297 27.1458 68.4787 27.7128 68.4787C28.2798 68.4787 28.7267 68.3249 29.0534 68.0174C29.3801 67.7099 29.5435 67.3207 29.5435 66.8498C29.5435 66.3405 29.3753 65.9465 29.039 65.6678C28.7026 65.3795 28.2606 65.2353 27.7128 65.2353ZM40.1756 61.156H35.5052V63.6209C35.707 63.371 35.9953 63.1692 36.37 63.0155C36.7448 62.8521 37.1436 62.7704 37.5665 62.7704C38.3353 62.7704 38.9647 62.9386 39.4548 63.2749C39.9449 63.6113 40.3005 64.0437 40.5215 64.5723C40.7425 65.0912 40.853 65.6486 40.853 66.2444C40.853 67.3495 40.5359 68.2384 39.9017 68.9111C39.277 69.5838 38.3833 69.9202 37.2205 69.9202C36.125 69.9202 35.2505 69.6463 34.597 69.0985C33.9435 68.5508 33.5736 67.8348 33.4871 66.9507H35.4475C35.534 67.3351 35.7262 67.6426 36.0241 67.8733C36.3316 68.1039 36.7208 68.2192 37.1917 68.2192C37.7587 68.2192 38.1863 68.0414 38.4746 67.6859C38.7629 67.3303 38.907 66.8594 38.907 66.2732C38.907 65.6774 38.7581 65.2257 38.4602 64.9182C38.1719 64.6011 37.7443 64.4425 37.1773 64.4425C36.7737 64.4425 36.4373 64.5434 36.1682 64.7452C35.8992 64.9471 35.707 65.2161 35.5916 65.5525H33.6601V59.3829H40.1756V61.156Z" fill="black"/>
<path d="M180.57 67.0228C180.57 67.5225 180.44 67.9934 180.181 68.4354C179.931 68.8679 179.556 69.2283 179.057 69.5166C178.567 69.7952 177.985 69.9586 177.312 70.0067V71.1743H176.39V69.9922C175.429 69.9058 174.655 69.6175 174.069 69.1274C173.483 68.6276 173.18 67.9549 173.161 67.1093H175.323C175.381 67.8012 175.736 68.2192 176.39 68.3634V65.6101C175.698 65.4372 175.141 65.2642 174.718 65.0912C174.295 64.9182 173.93 64.6395 173.622 64.2551C173.315 63.8707 173.161 63.347 173.161 62.6839C173.161 61.8479 173.459 61.1656 174.055 60.637C174.66 60.1085 175.438 59.8058 176.39 59.7289V58.5613H177.312V59.7289C178.235 59.8058 178.97 60.0845 179.518 60.5649C180.075 61.0454 180.388 61.7085 180.455 62.5542H178.278C178.249 62.2755 178.148 62.0353 177.976 61.8335C177.812 61.622 177.591 61.4731 177.312 61.3866V64.111C178.033 64.2936 178.6 64.4714 179.013 64.6443C179.436 64.8077 179.801 65.0816 180.109 65.466C180.416 65.8408 180.57 66.3597 180.57 67.0228ZM175.266 62.583C175.266 62.9001 175.362 63.1596 175.554 63.3614C175.746 63.5536 176.025 63.7122 176.39 63.8371V61.3433C176.044 61.3914 175.77 61.5211 175.568 61.7325C175.366 61.944 175.266 62.2275 175.266 62.583ZM177.312 68.3922C177.678 68.3249 177.961 68.176 178.163 67.9453C178.374 67.7147 178.48 67.436 178.48 67.1093C178.48 66.7922 178.379 66.5375 178.177 66.3453C177.976 66.1531 177.687 65.9945 177.312 65.8696V68.3922ZM188.041 62.0353C187.945 61.6316 187.777 61.3289 187.537 61.1271C187.306 60.9253 186.97 60.8244 186.528 60.8244C185.865 60.8244 185.375 61.0935 185.057 61.6316C184.75 62.1602 184.591 63.0251 184.582 64.2263C184.812 63.8419 185.149 63.544 185.591 63.3326C186.033 63.1116 186.513 63.0011 187.032 63.0011C187.657 63.0011 188.21 63.1356 188.69 63.4047C189.17 63.6737 189.545 64.0677 189.814 64.5867C190.083 65.096 190.218 65.711 190.218 66.4318C190.218 67.1141 190.079 67.7243 189.8 68.2625C189.531 68.791 189.132 69.2042 188.604 69.5021C188.075 69.8 187.446 69.949 186.715 69.949C185.716 69.949 184.928 69.728 184.351 69.2859C183.784 68.8439 183.385 68.2288 183.155 67.4408C182.934 66.6432 182.823 65.663 182.823 64.5002C182.823 62.7416 183.126 61.4154 183.731 60.5217C184.337 59.6184 185.293 59.1667 186.6 59.1667C187.609 59.1667 188.392 59.4406 188.949 59.9884C189.507 60.5361 189.829 61.2184 189.915 62.0353H188.041ZM186.571 64.6588C186.062 64.6588 185.634 64.8077 185.288 65.1056C184.942 65.4035 184.769 65.836 184.769 66.4029C184.769 66.9699 184.928 67.4168 185.245 67.7435C185.572 68.0703 186.028 68.2336 186.614 68.2336C187.133 68.2336 187.542 68.0751 187.84 67.7579C188.147 67.4408 188.301 67.0132 188.301 66.475C188.301 65.9177 188.152 65.4756 187.854 65.1489C187.566 64.8221 187.138 64.6588 186.571 64.6588ZM191.726 67.8733V66.2876L196.44 59.5415H198.79V66.1147H200.058V67.8733H198.79V69.9202H196.772V67.8733H191.726ZM196.901 61.7037L193.946 66.1147H196.901V61.7037ZM203.678 66.9651C203.755 67.388 203.928 67.7147 204.197 67.9453C204.476 68.1664 204.846 68.2769 205.307 68.2769C205.903 68.2769 206.335 68.0318 206.604 67.5417C206.874 67.042 207.008 66.2059 207.008 65.0335C206.787 65.3411 206.475 65.5813 206.071 65.7543C205.677 65.9273 205.249 66.0137 204.788 66.0137C204.173 66.0137 203.616 65.8888 203.116 65.639C202.626 65.3795 202.237 64.9999 201.948 64.5002C201.66 63.9909 201.516 63.3758 201.516 62.6551C201.516 61.5884 201.833 60.7427 202.467 60.1181C203.102 59.4838 203.967 59.1667 205.062 59.1667C206.427 59.1667 207.388 59.604 207.945 60.4785C208.512 61.353 208.796 62.6695 208.796 64.4281C208.796 65.6774 208.685 66.7009 208.464 67.4985C208.253 68.2961 207.883 68.9015 207.354 69.3147C206.835 69.728 206.124 69.9346 205.221 69.9346C204.51 69.9346 203.904 69.8 203.404 69.531C202.905 69.2523 202.52 68.8919 202.251 68.4499C201.992 67.9982 201.843 67.5033 201.804 66.9651H203.678ZM205.206 64.3705C205.706 64.3705 206.1 64.2167 206.388 63.9092C206.677 63.6017 206.821 63.1884 206.821 62.6695C206.821 62.1025 206.667 61.6653 206.359 61.3578C206.062 61.0406 205.653 60.8821 205.134 60.8821C204.615 60.8821 204.202 61.0454 203.894 61.3722C203.597 61.6893 203.448 62.1121 203.448 62.6407C203.448 63.15 203.592 63.568 203.88 63.8948C204.178 64.2119 204.62 64.3705 205.206 64.3705Z" fill="black"/>
</svg>
