<svg width="268" height="40" viewBox="0 0 268 40" fill="none" xmlns="http://www.w3.org/2000/svg">
<path fill-rule="evenodd" clip-rule="evenodd" d="M32.615 24.5553L35.5807 27.4605H35.5824L37.6897 25.3965L32.615 20.4254V24.5553Z" fill="white"/>
<path fill-rule="evenodd" clip-rule="evenodd" d="M32.9421 7.56555L28.542 13.6139H31.9656L35.2127 9.1499L32.9421 7.56555Z" fill="white"/>
<path fill-rule="evenodd" clip-rule="evenodd" d="M32.615 18.656H39.7028V15.7363H32.615V18.656Z" fill="white"/>
<path d="M15.5537 27.4439H18.5051V19.8613L21.336 23.9256H24.4079L27.4195 19.8613V27.4439H30.3106V15.7363H26.9979L22.9623 21.3172L18.9267 15.7363H15.5537V27.4439Z" fill="white"/>
<path fill-rule="evenodd" clip-rule="evenodd" d="M73.3809 14.4895H76.2337V27.1678H73.3809V14.4895ZM47.8226 17.5637H45.1736V27.1676H47.9973V21.6629C47.9973 20.7845 48.3757 19.8476 49.4819 19.8476C50.4425 19.8476 50.8501 20.4917 50.8501 21.4873V27.1969H53.5864V21.5458C53.5864 20.7553 53.9939 19.8769 55.071 19.8769C56.0899 19.8769 56.4392 20.5503 56.4392 21.5751V27.1969H59.2629V21.2237C59.2629 19.057 58.3605 17.3002 55.9734 17.3002C54.4888 17.3002 53.6155 18.1786 53.1498 18.9692C52.7422 18.0029 51.8689 17.3002 50.4716 17.3002C49.1908 17.3002 48.3757 18.0615 47.9682 18.7935L47.8226 17.5637ZM61.7373 17.5635V23.5366C61.7373 25.6448 62.6397 27.4602 65.1432 27.4309C66.5987 27.4309 67.5011 26.6111 67.9086 25.8791L68.0542 27.1674H70.7323V17.5635H67.8795V22.951C67.8795 23.888 67.4429 24.8835 66.1038 24.8835C64.9976 24.8835 64.5901 24.1222 64.5901 23.0096V17.5635H61.7373ZM79.5234 19.9063V23.7713C79.5234 26.0845 80.8625 27.4606 83.1913 27.4606C84.9961 27.4606 85.9567 26.6408 86.3643 25.6453V24.3569H84.3266C84.3266 24.5619 84.181 25.0889 83.4242 25.0889C82.6964 25.0889 82.3762 24.6497 82.3762 23.6835V19.9063H86.1605V17.5639H82.3762V14.4895H79.5525V17.5639H78.097V19.9063H79.5234ZM88.3149 17.5635H91.1386V27.1674H88.3149V17.5635ZM94.5739 19.9063V23.7713C94.5739 26.0845 95.913 27.4606 98.2418 27.4606C100.047 27.4606 101.007 26.6408 101.415 25.6453V24.3569H99.3771C99.3771 24.5619 99.2316 25.0889 98.4747 25.0889C97.7469 25.0889 97.4267 24.6497 97.4267 23.6835V19.9063H101.211V17.5639H97.4267V14.4895H94.603V17.5639H93.1475V19.9063H94.5739ZM102.812 24.4738C102.812 22.6585 104.122 21.4873 106.916 21.4873C107.906 21.4873 108.692 21.6629 108.692 21.6629V21.253C108.692 20.1989 108.197 19.6426 107.12 19.6426C105.897 19.6426 105.49 20.521 105.49 20.521H103.336V19.2327C103.336 19.2327 104.151 17.2416 107.178 17.2416C110.089 17.2416 111.545 18.6178 111.545 21.3116V27.1383H108.983L108.779 25.9086C108.314 26.6991 107.469 27.4019 105.956 27.4019C103.831 27.4604 102.812 26.1135 102.812 24.4738ZM108.692 23.6833V23.2733C108.692 23.2733 108.022 23.1269 107.091 23.1269C105.985 23.1269 105.606 23.5954 105.606 24.2103C105.606 24.9423 106.072 25.2644 106.858 25.2644C108.11 25.2644 108.692 24.386 108.692 23.6833ZM113.67 24.2689V25.5572C113.902 26.1721 115.212 27.4604 117.832 27.4604C120.423 27.4604 121.908 26.1135 121.908 24.2103C121.908 22.3657 120.627 21.6629 118.793 21.3994L117.57 21.2237C116.784 21.0773 116.348 20.8138 116.348 20.2868C116.348 19.7597 116.726 19.3791 117.629 19.3791C118.793 19.3791 119.259 20.1989 119.288 20.4039H121.442V19.1156C121.034 18.1493 119.87 17.3002 117.687 17.3002C115.271 17.3002 113.786 18.6178 113.786 20.4625C113.786 22.2485 114.921 23.0977 116.639 23.3319L117.861 23.4783C118.764 23.6247 119.317 23.859 119.317 24.4738C119.317 25.0009 118.939 25.3815 117.832 25.3815C116.522 25.3815 115.882 24.5617 115.795 24.2689H113.67ZM124.033 14.4895H126.885V21.4582L130.088 17.5639H132.533V18.8523L129.767 22.1609L132.911 25.8502V27.1678H130.233L126.856 23.01V27.1678H124.003V14.4895H124.033ZM141.178 19.8473V17.5635H134.745V27.1674H137.598V19.8473H141.178Z" fill="white"/>
<path d="M157.224 21.0325C157.224 20.2544 157.399 19.5564 157.75 18.9385C158.101 18.3129 158.578 17.8247 159.181 17.4738C159.791 17.1228 160.466 16.9474 161.206 16.9474C162.076 16.9474 162.835 17.1572 163.483 17.5767C164.132 17.9963 164.605 18.5913 164.902 19.3618H163.655C163.434 18.8812 163.113 18.5112 162.694 18.2519C162.282 17.9925 161.786 17.8628 161.206 17.8628C160.649 17.8628 160.15 17.9925 159.707 18.2519C159.265 18.5112 158.918 18.8812 158.666 19.3618C158.414 19.8348 158.288 20.3917 158.288 21.0325C158.288 21.6657 158.414 22.2226 158.666 22.7032C158.918 23.1762 159.265 23.5423 159.707 23.8017C160.15 24.0611 160.649 24.1908 161.206 24.1908C161.786 24.1908 162.282 24.0649 162.694 23.8132C163.113 23.5538 163.434 23.1838 163.655 22.7032H164.902C164.605 23.4661 164.132 24.0573 163.483 24.4769C162.835 24.8888 162.076 25.0948 161.206 25.0948C160.466 25.0948 159.791 24.9231 159.181 24.5798C158.578 24.2289 158.101 23.7445 157.75 23.1266C157.399 22.5087 157.224 21.8106 157.224 21.0325ZM172.014 18.7554V25.0261H170.972V24.0992C170.774 24.4196 170.495 24.6714 170.137 24.8545C169.786 25.0299 169.397 25.1177 168.97 25.1177C168.482 25.1177 168.043 25.0185 167.654 24.8201C167.265 24.6142 166.956 24.309 166.727 23.9047C166.506 23.5004 166.395 23.0083 166.395 22.4286V18.7554H167.425V22.2912C167.425 22.9092 167.581 23.386 167.894 23.7216C168.207 24.0497 168.634 24.2137 169.176 24.2137C169.733 24.2137 170.171 24.042 170.492 23.6987C170.812 23.3554 170.972 22.8558 170.972 22.1997V18.7554H172.014ZM175.992 25.1291C175.511 25.1291 175.08 25.049 174.699 24.8888C174.317 24.721 174.016 24.4921 173.795 24.2022C173.573 23.9047 173.451 23.5652 173.429 23.1838H174.504C174.535 23.4966 174.68 23.7521 174.939 23.9505C175.206 24.1488 175.553 24.248 175.98 24.248C176.377 24.248 176.69 24.1603 176.919 23.9848C177.147 23.8094 177.262 23.5881 177.262 23.3211C177.262 23.0465 177.14 22.8443 176.896 22.7146C176.652 22.5773 176.274 22.4438 175.763 22.3141C175.298 22.1921 174.916 22.07 174.619 21.948C174.329 21.8183 174.077 21.6314 173.863 21.3873C173.657 21.1355 173.554 20.8075 173.554 20.4032C173.554 20.0828 173.65 19.789 173.84 19.522C174.031 19.255 174.302 19.0453 174.653 18.8927C175.004 18.7325 175.404 18.6524 175.854 18.6524C176.549 18.6524 177.109 18.8278 177.537 19.1788C177.964 19.5297 178.193 20.0103 178.223 20.6206H177.182C177.159 20.2925 177.025 20.0294 176.781 19.831C176.545 19.6327 176.224 19.5335 175.82 19.5335C175.446 19.5335 175.149 19.6136 174.928 19.7738C174.706 19.934 174.596 20.1438 174.596 20.4032C174.596 20.6091 174.661 20.7808 174.79 20.9181C174.928 21.0478 175.095 21.1546 175.294 21.2385C175.5 21.3148 175.782 21.4025 176.14 21.5017C176.591 21.6237 176.957 21.7458 177.239 21.8679C177.521 21.9823 177.762 22.1577 177.96 22.3942C178.166 22.6307 178.273 22.9397 178.28 23.3211C178.28 23.6644 178.185 23.9734 177.994 24.248C177.804 24.5226 177.533 24.74 177.182 24.9003C176.839 25.0528 176.442 25.1291 175.992 25.1291ZM181.02 19.6136V23.3097C181.02 23.6148 181.085 23.8322 181.215 23.9619C181.345 24.084 181.57 24.145 181.89 24.145H182.657V25.0261H181.719C181.139 25.0261 180.704 24.8926 180.414 24.6256C180.124 24.3586 179.979 23.92 179.979 23.3097V19.6136H179.167V18.7554H179.979V17.1762H181.02V18.7554H182.657V19.6136H181.02ZM186.653 25.1291C186.066 25.1291 185.532 24.9956 185.051 24.7286C184.578 24.4616 184.205 24.084 183.93 23.5957C183.663 23.0999 183.529 22.5277 183.529 21.8793C183.529 21.2385 183.667 20.674 183.941 20.1857C184.224 19.6899 184.605 19.3123 185.086 19.0529C185.566 18.7859 186.104 18.6524 186.699 18.6524C187.294 18.6524 187.832 18.7859 188.313 19.0529C188.793 19.3123 189.171 19.6861 189.445 20.1743C189.728 20.6625 189.869 21.2309 189.869 21.8793C189.869 22.5277 189.724 23.0999 189.434 23.5957C189.152 24.084 188.767 24.4616 188.278 24.7286C187.79 24.9956 187.248 25.1291 186.653 25.1291ZM186.653 24.2137C187.027 24.2137 187.378 24.1259 187.706 23.9505C188.034 23.775 188.297 23.5118 188.496 23.1609C188.702 22.81 188.805 22.3828 188.805 21.8793C188.805 21.3758 188.705 20.9486 188.507 20.5977C188.309 20.2468 188.049 19.9874 187.729 19.8196C187.409 19.6441 187.062 19.5564 186.688 19.5564C186.306 19.5564 185.955 19.6441 185.635 19.8196C185.322 19.9874 185.07 20.2468 184.88 20.5977C184.689 20.9486 184.594 21.3758 184.594 21.8793C184.594 22.3904 184.685 22.8214 184.868 23.1724C185.059 23.5233 185.311 23.7865 185.624 23.9619C185.936 24.1298 186.28 24.2137 186.653 24.2137ZM198.779 18.6409C199.267 18.6409 199.702 18.7439 200.083 18.9499C200.465 19.1482 200.766 19.4496 200.987 19.8539C201.209 20.2582 201.319 20.7503 201.319 21.33V25.0261H200.289V21.4788C200.289 20.8532 200.133 20.3765 199.82 20.0484C199.515 19.7128 199.099 19.5449 198.573 19.5449C198.031 19.5449 197.6 19.7204 197.28 20.0713C196.959 20.4146 196.799 20.9143 196.799 21.5703V25.0261H195.769V21.4788C195.769 20.8532 195.613 20.3765 195.3 20.0484C194.995 19.7128 194.579 19.5449 194.053 19.5449C193.511 19.5449 193.08 19.7204 192.76 20.0713C192.44 20.4146 192.279 20.9143 192.279 21.5703V25.0261H191.238V18.7554H192.279V19.6594C192.485 19.3313 192.76 19.0796 193.103 18.9041C193.454 18.7287 193.839 18.6409 194.259 18.6409C194.785 18.6409 195.251 18.7592 195.655 18.9957C196.059 19.2322 196.361 19.5793 196.559 20.037C196.734 19.5945 197.024 19.2512 197.429 19.0071C197.833 18.763 198.283 18.6409 198.779 18.6409ZM203.565 17.7369C203.367 17.7369 203.199 17.6683 203.062 17.531C202.924 17.3936 202.856 17.2258 202.856 17.0275C202.856 16.8291 202.924 16.6613 203.062 16.524C203.199 16.3867 203.367 16.318 203.565 16.318C203.756 16.318 203.916 16.3867 204.046 16.524C204.183 16.6613 204.252 16.8291 204.252 17.0275C204.252 17.2258 204.183 17.3936 204.046 17.531C203.916 17.6683 203.756 17.7369 203.565 17.7369ZM204.069 18.7554V25.0261H203.027V18.7554H204.069ZM206.622 24.1679H209.7V25.0261H205.432V24.1679L208.475 19.6021H205.454V18.7554H209.677V19.6021L206.622 24.1679ZM216.772 21.6504C216.772 21.8488 216.761 22.0586 216.738 22.2798H211.726C211.764 22.8977 211.974 23.3821 212.355 23.7331C212.744 24.0764 213.214 24.248 213.763 24.248C214.213 24.248 214.587 24.145 214.884 23.939C215.189 23.7254 215.403 23.4432 215.525 23.0923H216.647C216.479 23.6949 216.143 24.187 215.64 24.5684C215.136 24.9422 214.511 25.1291 213.763 25.1291C213.168 25.1291 212.634 24.9956 212.161 24.7286C211.696 24.4616 211.329 24.084 211.062 23.5957C210.795 23.0999 210.662 22.5277 210.662 21.8793C210.662 21.2309 210.792 20.6625 211.051 20.1743C211.31 19.6861 211.673 19.3123 212.138 19.0529C212.611 18.7859 213.153 18.6524 213.763 18.6524C214.358 18.6524 214.884 18.7821 215.342 19.0414C215.8 19.3008 216.151 19.6594 216.395 20.1171C216.647 20.5672 216.772 21.0783 216.772 21.6504ZM215.697 21.433C215.697 21.0363 215.609 20.6969 215.434 20.4146C215.258 20.1247 215.018 19.9073 214.713 19.7623C214.415 19.6098 214.083 19.5335 213.717 19.5335C213.191 19.5335 212.741 19.7013 212.367 20.037C212.001 20.3726 211.791 20.838 211.737 21.433H215.697ZM219.188 19.7738C219.371 19.4152 219.631 19.1368 219.966 18.9385C220.31 18.7401 220.725 18.6409 221.214 18.6409V19.7166H220.939C219.772 19.7166 219.188 20.3498 219.188 21.6161V25.0261H218.147V18.7554H219.188V19.7738ZM232.058 17.0504L229.048 25.0261H227.847L224.837 17.0504H225.947L228.453 23.9276L230.959 17.0504H232.058ZM235.804 17.7026V16.7528H237.955V25.0261H236.902V17.7026H235.804ZM240.247 25.0948C240.049 25.0948 239.881 25.0261 239.744 24.8888C239.606 24.7515 239.538 24.5837 239.538 24.3853C239.538 24.187 239.606 24.0191 239.744 23.8818C239.881 23.7445 240.049 23.6759 240.247 23.6759C240.438 23.6759 240.598 23.7445 240.728 23.8818C240.865 24.0191 240.934 24.187 240.934 24.3853C240.934 24.5837 240.865 24.7515 240.728 24.8888C240.598 25.0261 240.438 25.0948 240.247 25.0948ZM242.146 20.8037C242.146 19.4915 242.36 18.4693 242.787 17.7369C243.214 16.997 243.962 16.627 245.03 16.627C246.09 16.627 246.834 16.997 247.261 17.7369C247.689 18.4693 247.902 19.4915 247.902 20.8037C247.902 22.1387 247.689 23.1762 247.261 23.9162C246.834 24.6561 246.09 25.0261 245.03 25.0261C243.962 25.0261 243.214 24.6561 242.787 23.9162C242.36 23.1762 242.146 22.1387 242.146 20.8037ZM246.872 20.8037C246.872 20.14 246.827 19.5793 246.735 19.1215C246.651 18.6562 246.472 18.2824 246.197 18.0001C245.93 17.7179 245.541 17.5767 245.03 17.5767C244.511 17.5767 244.115 17.7179 243.84 18.0001C243.573 18.2824 243.394 18.6562 243.302 19.1215C243.218 19.5793 243.176 20.14 243.176 20.8037C243.176 21.4902 243.218 22.0662 243.302 22.5316C243.394 22.9969 243.573 23.3707 243.84 23.653C244.115 23.9352 244.511 24.0764 245.03 24.0764C245.541 24.0764 245.93 23.9352 246.197 23.653C246.472 23.3707 246.651 22.9969 246.735 22.5316C246.827 22.0662 246.872 21.4902 246.872 20.8037Z" fill="white"/>
<rect x="149.554" y="8.80884" width="1.19643" height="24.869" fill="white"/>
<rect x="0.585153" y="0.689889" width="266.83" height="38.6201" rx="1.75546" stroke="white" stroke-width="1.17031"/>
</svg>
