<svg width="247" height="79" viewBox="0 0 247 79" fill="none" xmlns="http://www.w3.org/2000/svg">
<path opacity="0.5" d="M10.85 34.926V44H9.03004V38.098L6.59904 44H5.22104L2.77704 38.098V44H0.957043V34.926H3.02404L5.91004 41.673L8.79604 34.926H10.85ZM22.8024 34.926V44H20.9824V38.098L18.5514 44H17.1734L14.7294 38.098V44H12.9094V34.926H14.9764L17.8624 41.673L20.7484 34.926H22.8024ZM31.0368 34.926V36.395H28.6188V44H26.7988V36.395H24.3808V34.926H31.0368ZM32.0787 34.848H35.1727V35.446H33.9897L34.0027 39.424H33.2487L33.2617 35.446H32.0787V34.848ZM40.8667 34.848V39.424H40.1777L40.1647 35.927L38.6307 39.424H38.0847L36.5637 35.888V39.424H35.8877V34.848H36.8107L38.3707 38.54L39.9827 34.848H40.8667ZM47.3042 45.3H46.3942V33.73H47.3042V45.3ZM62.9435 34.926V44H61.1235V38.098L58.6925 44H57.3145L54.8705 38.098V44H53.0505V34.926H55.1175L58.0035 41.673L60.8895 34.926H62.9435ZM71.8019 36.798V44H69.9689V43.09C69.7349 43.402 69.4272 43.649 69.0459 43.831C68.6732 44.0043 68.2659 44.091 67.8239 44.091C67.2605 44.091 66.7622 43.974 66.3289 43.74C65.8955 43.4973 65.5532 43.1463 65.3019 42.687C65.0592 42.219 64.9379 41.6643 64.9379 41.023V36.798H66.7579V40.763C66.7579 41.335 66.9009 41.777 67.1869 42.089C67.4729 42.3923 67.8629 42.544 68.3569 42.544C68.8595 42.544 69.2539 42.3923 69.5399 42.089C69.8259 41.777 69.9689 41.335 69.9689 40.763V36.798H71.8019ZM75.6776 34.38V44H73.8576V34.38H75.6776ZM79.8548 38.293V41.777C79.8548 42.0197 79.9111 42.1973 80.0238 42.31C80.1451 42.414 80.3444 42.466 80.6218 42.466H81.4668V44H80.3228C78.7888 44 78.0218 43.2547 78.0218 41.764V38.293H77.1638V36.798H78.0218V35.017H79.8548V36.798H81.4668V38.293H79.8548ZM83.9588 35.94C83.6381 35.94 83.3695 35.8403 83.1528 35.641C82.9448 35.433 82.8408 35.1773 82.8408 34.874C82.8408 34.5707 82.9448 34.3193 83.1528 34.12C83.3695 33.912 83.6381 33.808 83.9588 33.808C84.2795 33.808 84.5438 33.912 84.7518 34.12C84.9685 34.3193 85.0768 34.5707 85.0768 34.874C85.0768 35.1773 84.9685 35.433 84.7518 35.641C84.5438 35.8403 84.2795 35.94 83.9588 35.94ZM84.8558 36.798V44H83.0358V36.798H84.8558ZM89.033 38.293V41.777C89.033 42.0197 89.0893 42.1973 89.202 42.31C89.3233 42.414 89.5226 42.466 89.8 42.466H90.645V44H89.501C87.967 44 87.2 43.2547 87.2 41.764V38.293H86.342V36.798H87.2V35.017H89.033V36.798H90.645V38.293H89.033ZM91.746 40.373C91.746 39.645 91.889 38.9993 92.175 38.436C92.4697 37.8727 92.864 37.4393 93.358 37.136C93.8607 36.8327 94.4197 36.681 95.035 36.681C95.5723 36.681 96.0403 36.7893 96.439 37.006C96.8463 37.2227 97.1713 37.4957 97.414 37.825V36.798H99.247V44H97.414V42.947C97.18 43.285 96.855 43.5667 96.439 43.792C96.0317 44.0087 95.5593 44.117 95.022 44.117C94.4153 44.117 93.8607 43.961 93.358 43.649C92.864 43.337 92.4697 42.8993 92.175 42.336C91.889 41.764 91.746 41.1097 91.746 40.373ZM97.414 40.399C97.414 39.957 97.3273 39.58 97.154 39.268C96.9807 38.9473 96.7467 38.7047 96.452 38.54C96.1573 38.3667 95.841 38.28 95.503 38.28C95.165 38.28 94.853 38.3623 94.567 38.527C94.281 38.6917 94.047 38.9343 93.865 39.255C93.6917 39.567 93.605 39.9397 93.605 40.373C93.605 40.8063 93.6917 41.1877 93.865 41.517C94.047 41.8377 94.281 42.0847 94.567 42.258C94.8617 42.4313 95.1737 42.518 95.503 42.518C95.841 42.518 96.1573 42.4357 96.452 42.271C96.7467 42.0977 96.9807 41.855 97.154 41.543C97.3273 41.2223 97.414 40.841 97.414 40.399ZM104.041 44.117C103.451 44.117 102.923 44.013 102.455 43.805C101.987 43.5883 101.614 43.298 101.337 42.934C101.068 42.57 100.921 42.167 100.895 41.725H102.728C102.762 42.0023 102.897 42.232 103.131 42.414C103.373 42.596 103.672 42.687 104.028 42.687C104.374 42.687 104.643 42.6177 104.834 42.479C105.033 42.3403 105.133 42.1627 105.133 41.946C105.133 41.712 105.011 41.5387 104.769 41.426C104.535 41.3047 104.158 41.1747 103.638 41.036C103.1 40.906 102.658 40.7717 102.312 40.633C101.974 40.4943 101.679 40.282 101.428 39.996C101.185 39.71 101.064 39.3243 101.064 38.839C101.064 38.4403 101.176 38.0763 101.402 37.747C101.636 37.4177 101.965 37.1577 102.39 36.967C102.823 36.7763 103.33 36.681 103.911 36.681C104.769 36.681 105.453 36.8977 105.965 37.331C106.476 37.7557 106.758 38.332 106.81 39.06H105.068C105.042 38.774 104.92 38.5487 104.704 38.384C104.496 38.2107 104.214 38.124 103.859 38.124C103.529 38.124 103.274 38.1847 103.092 38.306C102.918 38.4273 102.832 38.5963 102.832 38.813C102.832 39.0557 102.953 39.242 103.196 39.372C103.438 39.4933 103.815 39.619 104.327 39.749C104.847 39.879 105.276 40.0133 105.614 40.152C105.952 40.2907 106.242 40.5073 106.485 40.802C106.736 41.088 106.866 41.4693 106.875 41.946C106.875 42.362 106.758 42.7347 106.524 43.064C106.298 43.3933 105.969 43.6533 105.536 43.844C105.111 44.026 104.613 44.117 104.041 44.117ZM112.893 44L110.449 40.932V44H108.629V34.38H110.449V39.853L112.867 36.798H115.233L112.061 40.412L115.259 44H112.893ZM118.3 37.916C118.534 37.5347 118.838 37.2357 119.21 37.019C119.592 36.8023 120.025 36.694 120.51 36.694V38.605H120.029C119.457 38.605 119.024 38.7393 118.729 39.008C118.443 39.2767 118.3 39.7447 118.3 40.412V44H116.48V36.798H118.3V37.916ZM129.631 34.861C130.506 34.861 131.282 35.056 131.958 35.446C132.643 35.836 133.171 36.3777 133.544 37.071C133.925 37.7643 134.116 38.5573 134.116 39.45C134.116 40.3427 133.925 41.14 133.544 41.842C133.171 42.5353 132.643 43.077 131.958 43.467C131.282 43.857 130.506 44.052 129.631 44.052C128.756 44.052 127.976 43.857 127.291 43.467C126.615 43.077 126.086 42.5353 125.705 41.842C125.332 41.14 125.146 40.3427 125.146 39.45C125.146 38.5573 125.332 37.7643 125.705 37.071C126.086 36.3777 126.615 35.836 127.291 35.446C127.976 35.056 128.756 34.861 129.631 34.861ZM129.631 35.29C128.816 35.29 128.106 35.4677 127.499 35.823C126.901 36.1697 126.437 36.6593 126.108 37.292C125.779 37.916 125.614 38.6353 125.614 39.45C125.614 40.2647 125.779 40.9883 126.108 41.621C126.437 42.245 126.905 42.7347 127.512 43.09C128.119 43.4367 128.825 43.61 129.631 43.61C130.437 43.61 131.143 43.4367 131.75 43.09C132.357 42.7347 132.825 42.245 133.154 41.621C133.483 40.9883 133.648 40.2647 133.648 39.45C133.648 38.6353 133.483 37.916 133.154 37.292C132.825 36.6593 132.357 36.1697 131.75 35.823C131.152 35.4677 130.446 35.29 129.631 35.29ZM129.631 36.408C129.111 36.408 128.639 36.5293 128.214 36.772C127.789 37.0147 127.451 37.3657 127.2 37.825C126.949 38.2843 126.823 38.8217 126.823 39.437C126.823 40.061 126.949 40.6027 127.2 41.062C127.451 41.5213 127.789 41.8723 128.214 42.115C128.639 42.3577 129.111 42.479 129.631 42.479C130.272 42.479 130.831 42.3057 131.308 41.959C131.793 41.6037 132.118 41.127 132.283 40.529H131.438C131.299 40.945 131.074 41.2613 130.762 41.478C130.45 41.6947 130.073 41.803 129.631 41.803C129.059 41.803 128.582 41.5993 128.201 41.192C127.828 40.776 127.642 40.1953 127.642 39.45C127.642 38.7047 127.828 38.124 128.201 37.708C128.582 37.292 129.059 37.084 129.631 37.084C130.056 37.084 130.428 37.1967 130.749 37.422C131.078 37.6387 131.308 37.955 131.438 38.371H132.283C132.118 37.747 131.798 37.266 131.321 36.928C130.844 36.5813 130.281 36.408 129.631 36.408ZM139.682 41.946C140.514 41.2527 141.177 40.6763 141.671 40.217C142.165 39.749 142.577 39.2637 142.906 38.761C143.236 38.2583 143.4 37.7643 143.4 37.279C143.4 36.837 143.296 36.4903 143.088 36.239C142.88 35.9877 142.56 35.862 142.126 35.862C141.693 35.862 141.359 36.0093 141.125 36.304C140.891 36.59 140.77 36.9843 140.761 37.487H138.993C139.028 36.447 139.336 35.6583 139.916 35.121C140.506 34.5837 141.251 34.315 142.152 34.315C143.14 34.315 143.899 34.5793 144.427 35.108C144.956 35.628 145.22 36.317 145.22 37.175C145.22 37.851 145.038 38.4967 144.674 39.112C144.31 39.7273 143.894 40.2647 143.426 40.724C142.958 41.1747 142.347 41.7207 141.593 42.362H145.428V43.87H139.006V42.518L139.682 41.946ZM146.835 39.138C146.835 37.6387 147.104 36.4643 147.641 35.615C148.187 34.7657 149.088 34.341 150.345 34.341C151.602 34.341 152.499 34.7657 153.036 35.615C153.582 36.4643 153.855 37.6387 153.855 39.138C153.855 40.646 153.582 41.829 153.036 42.687C152.499 43.545 151.602 43.974 150.345 43.974C149.088 43.974 148.187 43.545 147.641 42.687C147.104 41.829 146.835 40.646 146.835 39.138ZM152.061 39.138C152.061 38.4967 152.018 37.9593 151.931 37.526C151.853 37.084 151.688 36.7243 151.437 36.447C151.194 36.1697 150.83 36.031 150.345 36.031C149.86 36.031 149.491 36.1697 149.24 36.447C148.997 36.7243 148.833 37.084 148.746 37.526C148.668 37.9593 148.629 38.4967 148.629 39.138C148.629 39.7967 148.668 40.3513 148.746 40.802C148.824 41.244 148.989 41.6037 149.24 41.881C149.491 42.1497 149.86 42.284 150.345 42.284C150.83 42.284 151.199 42.1497 151.45 41.881C151.701 41.6037 151.866 41.244 151.944 40.802C152.022 40.3513 152.061 39.7967 152.061 39.138ZM156.071 41.946C156.903 41.2527 157.566 40.6763 158.06 40.217C158.554 39.749 158.966 39.2637 159.295 38.761C159.625 38.2583 159.789 37.7643 159.789 37.279C159.789 36.837 159.685 36.4903 159.477 36.239C159.269 35.9877 158.949 35.862 158.515 35.862C158.082 35.862 157.748 36.0093 157.514 36.304C157.28 36.59 157.159 36.9843 157.15 37.487H155.382C155.417 36.447 155.725 35.6583 156.305 35.121C156.895 34.5837 157.64 34.315 158.541 34.315C159.529 34.315 160.288 34.5793 160.816 35.108C161.345 35.628 161.609 36.317 161.609 37.175C161.609 37.851 161.427 38.4967 161.063 39.112C160.699 39.7273 160.283 40.2647 159.815 40.724C159.347 41.1747 158.736 41.7207 157.982 42.362H161.817V43.87H155.395V42.518L156.071 41.946ZM163.796 41.946C164.628 41.2527 165.291 40.6763 165.785 40.217C166.279 39.749 166.691 39.2637 167.02 38.761C167.349 38.2583 167.514 37.7643 167.514 37.279C167.514 36.837 167.41 36.4903 167.202 36.239C166.994 35.9877 166.673 35.862 166.24 35.862C165.807 35.862 165.473 36.0093 165.239 36.304C165.005 36.59 164.884 36.9843 164.875 37.487H163.107C163.142 36.447 163.449 35.6583 164.03 35.121C164.619 34.5837 165.365 34.315 166.266 34.315C167.254 34.315 168.012 34.5793 168.541 35.108C169.07 35.628 169.334 36.317 169.334 37.175C169.334 37.851 169.152 38.4967 168.788 39.112C168.424 39.7273 168.008 40.2647 167.54 40.724C167.072 41.1747 166.461 41.7207 165.707 42.362H169.542V43.87H163.12V42.518L163.796 41.946Z" fill="#B591F9"/>
<path d="M208.102 37.3267L205.689 40.6761L203.275 37.3267H201.21V44.4126H203.002V39.8115L204.793 42.2979L204.794 42.2982H206.585V42.2979L208.376 39.8119V44.4126H210.168V37.3267H208.102Z" fill="url(#paint0_linear_2503_20332)"/>
<path d="M211.73 32.2914L209.075 35.9763H211.141L213.101 33.2566L211.73 32.2914Z" fill="url(#paint1_linear_2503_20332)"/>
<path d="M211.533 42.6424L213.323 44.4123H213.324L214.596 43.1549L211.533 40.1263V42.6424Z" fill="url(#paint2_linear_2503_20332)"/>
<path d="M215.811 39.1055H211.533V37.3267H215.811V39.1055Z" fill="url(#paint3_linear_2503_20332)"/>
<path fill-rule="evenodd" clip-rule="evenodd" d="M207.546 52.1261C214.545 52.1261 220.219 46.4525 220.219 39.4539C220.219 32.4553 214.545 26.7817 207.546 26.7817C200.548 26.7817 194.874 32.4553 194.874 39.4539C194.874 46.4525 200.548 52.1261 207.546 52.1261ZM207.546 54.3299C215.762 54.3299 222.422 47.6697 222.422 39.4539C222.422 31.2381 215.762 24.5779 207.546 24.5779C199.331 24.5779 192.67 31.2381 192.67 39.4539C192.67 47.6697 199.331 54.3299 207.546 54.3299Z" fill="url(#paint4_linear_2503_20332)"/>
<circle opacity="0.6" cx="207.5" cy="39.5" r="38.7135" stroke="url(#paint5_linear_2503_20332)" stroke-width="1.57298"/>
<circle opacity="0.6" cx="207.5" cy="39.5" r="22.2904" stroke="url(#paint6_linear_2503_20332)" stroke-width="0.786489"/>
<defs>
<linearGradient id="paint0_linear_2503_20332" x1="198.366" y1="33.5571" x2="200.108" y2="51.5826" gradientUnits="userSpaceOnUse">
<stop stop-color="white" stop-opacity="0.92"/>
<stop offset="0.601475" stop-color="white"/>
</linearGradient>
<linearGradient id="paint1_linear_2503_20332" x1="198.366" y1="33.5571" x2="200.108" y2="51.5826" gradientUnits="userSpaceOnUse">
<stop stop-color="white" stop-opacity="0.92"/>
<stop offset="0.601475" stop-color="white"/>
</linearGradient>
<linearGradient id="paint2_linear_2503_20332" x1="198.366" y1="33.5571" x2="200.108" y2="51.5826" gradientUnits="userSpaceOnUse">
<stop stop-color="white" stop-opacity="0.92"/>
<stop offset="0.601475" stop-color="white"/>
</linearGradient>
<linearGradient id="paint3_linear_2503_20332" x1="198.366" y1="33.5571" x2="200.108" y2="51.5826" gradientUnits="userSpaceOnUse">
<stop stop-color="white" stop-opacity="0.92"/>
<stop offset="0.601475" stop-color="white"/>
</linearGradient>
<linearGradient id="paint4_linear_2503_20332" x1="198.366" y1="33.5571" x2="200.108" y2="51.5826" gradientUnits="userSpaceOnUse">
<stop stop-color="white" stop-opacity="0.92"/>
<stop offset="0.601475" stop-color="white"/>
</linearGradient>
<linearGradient id="paint5_linear_2503_20332" x1="267.651" y1="4.66609" x2="196.505" y2="75.8123" gradientUnits="userSpaceOnUse">
<stop offset="0.176566" stop-color="#E2D7F2" stop-opacity="0.55"/>
<stop offset="0.709615" stop-color="#E2D7F2" stop-opacity="0"/>
</linearGradient>
<linearGradient id="paint6_linear_2503_20332" x1="245.258" y1="11.526" x2="197.209" y2="66.0246" gradientUnits="userSpaceOnUse">
<stop stop-color="#E2D7F2" stop-opacity="0.83"/>
<stop offset="0.963583" stop-color="#E2D7F2" stop-opacity="0"/>
</linearGradient>
</defs>
</svg>
