<svg width="210" height="33" viewBox="0 0 210 33" fill="none" xmlns="http://www.w3.org/2000/svg">
<path fill-rule="evenodd" clip-rule="evenodd" d="M25.5566 20.1629L27.8805 22.5586H27.8818L29.5331 20.8565L25.5566 16.7572V20.1629Z" fill="white"/>
<path fill-rule="evenodd" clip-rule="evenodd" d="M25.8126 6.15234L22.3647 11.14H25.0474L27.5918 7.45885L25.8126 6.15234Z" fill="white"/>
<path fill-rule="evenodd" clip-rule="evenodd" d="M25.5566 15.298H31.1105V12.8904H25.5566V15.298Z" fill="white"/>
<path d="M12.1875 22.5449H14.5002V16.292L16.7184 19.6435H19.1255L21.4853 16.292V22.5449H23.7508V12.8904H21.1549L17.9927 17.4925L14.8305 12.8904H12.1875V22.5449Z" fill="white"/>
<path fill-rule="evenodd" clip-rule="evenodd" d="M57.5003 11.8622H59.7357V22.3172H57.5003V11.8622ZM37.4732 14.3973H35.3975V22.317H37.61V17.7776C37.61 17.0533 37.9066 16.2806 38.7734 16.2806C39.5261 16.2806 39.8454 16.8118 39.8454 17.6328V22.3411H41.9896V17.681C41.9896 17.0291 42.3089 16.3048 43.1529 16.3048C43.9513 16.3048 44.225 16.8601 44.225 17.7052V22.3411H46.4376V17.4154C46.4376 15.6287 45.7305 14.18 43.86 14.18C42.6967 14.18 42.0124 14.9043 41.6474 15.5562C41.3281 14.7594 40.6438 14.18 39.5489 14.18C38.5453 14.18 37.9066 14.8077 37.5872 15.4114L37.4732 14.3973ZM48.3767 14.3971V19.3228C48.3767 21.0612 49.0838 22.5583 51.0455 22.5341C52.186 22.5341 52.8931 21.858 53.2124 21.2544L53.3265 22.3168H55.425V14.3971H53.1896V18.8399C53.1896 19.6125 52.8475 20.4335 51.7982 20.4335C50.9314 20.4335 50.6121 19.8057 50.6121 18.8882V14.3971H48.3767ZM62.3135 16.3291V19.5163C62.3135 21.4238 63.3628 22.5586 65.1876 22.5586C66.6018 22.5586 67.3545 21.8825 67.6739 21.0616V19.9992H66.0772C66.0772 20.1682 65.9631 20.6028 65.3701 20.6028C64.7998 20.6028 64.5489 20.2407 64.5489 19.4439V16.3291H67.5142V14.3975H64.5489V11.8622H62.3363V14.3975H61.1958V16.3291H62.3135ZM69.2022 14.3971H71.4148V22.3168H69.2022V14.3971ZM74.1065 16.3291V19.5163C74.1065 21.4238 75.1558 22.5586 76.9806 22.5586C78.3948 22.5586 79.1475 21.8825 79.4669 21.0616V19.9992H77.8702C77.8702 20.1682 77.7561 20.6028 77.1631 20.6028C76.5928 20.6028 76.3419 20.2407 76.3419 19.4439V16.3291H79.3072V14.3975H76.3419V11.8622H74.1293V14.3975H72.9888V16.3291H74.1065ZM80.5616 20.0956C80.5616 18.5986 81.5881 17.6328 83.7778 17.6328C84.5534 17.6328 85.1693 17.7776 85.1693 17.7776V17.4396C85.1693 16.5704 84.7815 16.1116 83.9375 16.1116C82.9795 16.1116 82.6601 16.836 82.6601 16.836H80.9722V15.7736C80.9722 15.7736 81.6109 14.1317 83.9831 14.1317C86.2641 14.1317 87.4047 15.2665 87.4047 17.4879V22.2928H85.3974L85.2377 21.2787C84.8727 21.9307 84.2112 22.5101 83.0251 22.5101C81.3599 22.5584 80.5616 21.4477 80.5616 20.0956ZM85.1693 19.4437V19.1056C85.1693 19.1056 84.6446 18.9849 83.9147 18.9849C83.0479 18.9849 82.7514 19.3712 82.7514 19.8783C82.7514 20.4819 83.1163 20.7475 83.7322 20.7475C84.713 20.7475 85.1693 20.0232 85.1693 19.4437ZM89.0698 19.9266V20.989C89.2523 21.496 90.2787 22.5584 92.3316 22.5584C94.3617 22.5584 95.525 21.4477 95.525 19.8783C95.525 18.3571 94.5214 17.7776 93.0844 17.5603L92.1263 17.4154C91.5105 17.2947 91.1683 17.0774 91.1683 16.6428C91.1683 16.2082 91.4648 15.8943 92.172 15.8943C93.0844 15.8943 93.4493 16.5704 93.4721 16.7394H95.1601V15.677C94.8407 14.8802 93.9283 14.18 92.2176 14.18C90.3243 14.18 89.161 15.2665 89.161 16.7877C89.161 18.2605 90.0506 18.9608 91.3964 19.1539L92.3544 19.2746C93.0616 19.3954 93.4949 19.5885 93.4949 20.0956C93.4949 20.5302 93.1984 20.8441 92.3316 20.8441C91.3052 20.8441 90.8034 20.168 90.7349 19.9266H89.0698ZM97.1902 11.8622H99.4256V17.6088L101.935 14.3975H103.851V15.4599L101.684 18.1883L104.147 21.2306V22.3172H102.049L99.4027 18.8885V22.3172H97.1673V11.8622H97.1902ZM110.625 16.2805V14.3971H105.584V22.3168H107.82V16.2805H110.625Z" fill="white"/>
<path d="M123.216 18.0287C123.216 17.3904 123.36 16.8178 123.648 16.3109C123.936 15.7977 124.327 15.3972 124.821 15.1094C125.322 14.8215 125.876 14.6776 126.483 14.6776C127.196 14.6776 127.819 14.8497 128.351 15.1939C128.883 15.538 129.271 16.0262 129.515 16.6582H128.492C128.31 16.264 128.047 15.9605 127.703 15.7477C127.365 15.5349 126.958 15.4285 126.483 15.4285C126.026 15.4285 125.616 15.5349 125.253 15.7477C124.89 15.9605 124.605 16.264 124.399 16.6582C124.192 17.0462 124.089 17.503 124.089 18.0287C124.089 18.5481 124.192 19.0049 124.399 19.3992C124.605 19.7872 124.89 20.0875 125.253 20.3003C125.616 20.5131 126.026 20.6194 126.483 20.6194C126.958 20.6194 127.365 20.5162 127.703 20.3097C128.047 20.0969 128.31 19.7934 128.492 19.3992H129.515C129.271 20.025 128.883 20.5099 128.351 20.8541C127.819 21.192 127.196 21.361 126.483 21.361C125.876 21.361 125.322 21.2202 124.821 20.9386C124.327 20.6507 123.936 20.2534 123.648 19.7465C123.36 19.2396 123.216 18.667 123.216 18.0287ZM135.348 16.1607V21.3047H134.494V20.5444C134.331 20.8072 134.103 21.0137 133.809 21.1639C133.521 21.3078 133.202 21.3798 132.851 21.3798C132.451 21.3798 132.091 21.2984 131.772 21.1357C131.453 20.9668 131.199 20.7164 131.012 20.3848C130.83 20.0531 130.739 19.6495 130.739 19.1739V16.1607H131.584V19.0612C131.584 19.5681 131.712 19.9592 131.969 20.2346C132.226 20.5037 132.576 20.6382 133.02 20.6382C133.477 20.6382 133.837 20.4974 134.1 20.2158C134.363 19.9342 134.494 19.5243 134.494 18.9861V16.1607H135.348ZM138.612 21.3892C138.217 21.3892 137.864 21.3235 137.551 21.192C137.238 21.0544 136.991 20.8666 136.809 20.6288C136.628 20.3848 136.528 20.1063 136.509 19.7934H137.391C137.416 20.05 137.535 20.2596 137.748 20.4223C137.967 20.585 138.252 20.6664 138.602 20.6664C138.928 20.6664 139.184 20.5944 139.372 20.4505C139.56 20.3066 139.653 20.1251 139.653 19.9061C139.653 19.6808 139.553 19.5149 139.353 19.4085C139.153 19.2959 138.843 19.1864 138.424 19.08C138.042 18.9799 137.729 18.8798 137.485 18.7796C137.247 18.6732 137.041 18.5199 136.866 18.3197C136.697 18.1132 136.612 17.8441 136.612 17.5124C136.612 17.2496 136.69 17.0086 136.847 16.7896C137.003 16.5706 137.225 16.3985 137.513 16.2733C137.801 16.1419 138.13 16.0762 138.499 16.0762C139.068 16.0762 139.528 16.2202 139.879 16.508C140.229 16.7959 140.417 17.1901 140.442 17.6908H139.588C139.569 17.4217 139.459 17.2058 139.259 17.0431C139.065 16.8804 138.802 16.799 138.471 16.799C138.164 16.799 137.92 16.8647 137.739 16.9961C137.557 17.1275 137.466 17.2996 137.466 17.5124C137.466 17.6814 137.52 17.8222 137.626 17.9348C137.739 18.0412 137.876 18.1288 138.039 18.1976C138.208 18.2602 138.439 18.3322 138.734 18.4135C139.103 18.5137 139.403 18.6138 139.635 18.7139C139.866 18.8078 140.063 18.9517 140.226 19.1457C140.395 19.3397 140.483 19.5932 140.489 19.9061C140.489 20.1877 140.411 20.4411 140.254 20.6664C140.098 20.8917 139.876 21.07 139.588 21.2014C139.306 21.3266 138.981 21.3892 138.612 21.3892ZM142.737 16.8647V19.8967C142.737 20.147 142.79 20.3253 142.896 20.4317C143.003 20.5318 143.187 20.5819 143.45 20.5819H144.079V21.3047H143.309C142.834 21.3047 142.477 21.1952 142.239 20.9761C142.001 20.7571 141.882 20.3973 141.882 19.8967V16.8647H141.216V16.1607H141.882V14.8653H142.737V16.1607H144.079V16.8647H142.737ZM147.357 21.3892C146.876 21.3892 146.438 21.2797 146.043 21.0606C145.655 20.8416 145.349 20.5318 145.123 20.1313C144.904 19.7246 144.795 19.2552 144.795 18.7233C144.795 18.1976 144.907 17.7346 145.133 17.3341C145.364 16.9273 145.677 16.6175 146.071 16.4048C146.466 16.1857 146.907 16.0762 147.395 16.0762C147.883 16.0762 148.324 16.1857 148.719 16.4048C149.113 16.6175 149.423 16.9242 149.648 17.3247C149.879 17.7252 149.995 18.1914 149.995 18.7233C149.995 19.2552 149.876 19.7246 149.638 20.1313C149.407 20.5318 149.091 20.8416 148.69 21.0606C148.29 21.2797 147.846 21.3892 147.357 21.3892ZM147.357 20.6382C147.664 20.6382 147.952 20.5663 148.221 20.4223C148.49 20.2784 148.706 20.0625 148.869 19.7746C149.038 19.4868 149.122 19.1363 149.122 18.7233C149.122 18.3103 149.041 17.9598 148.878 17.672C148.715 17.3841 148.503 17.1714 148.24 17.0337C147.977 16.8897 147.692 16.8178 147.386 16.8178C147.073 16.8178 146.785 16.8897 146.522 17.0337C146.265 17.1714 146.059 17.3841 145.902 17.672C145.746 17.9598 145.668 18.3103 145.668 18.7233C145.668 19.1426 145.743 19.4962 145.893 19.784C146.05 20.0719 146.256 20.2878 146.513 20.4317C146.769 20.5694 147.051 20.6382 147.357 20.6382ZM157.304 16.0668C157.705 16.0668 158.061 16.1513 158.374 16.3203C158.687 16.483 158.934 16.7302 159.116 17.0618C159.297 17.3935 159.388 17.7971 159.388 18.2727V21.3047H158.543V18.3948C158.543 17.8816 158.415 17.4905 158.158 17.2214C157.908 16.9461 157.567 16.8084 157.135 16.8084C156.691 16.8084 156.337 16.9523 156.074 17.2402C155.812 17.5218 155.68 17.9317 155.68 18.4699V21.3047H154.835V18.3948C154.835 17.8816 154.707 17.4905 154.451 17.2214C154.2 16.9461 153.859 16.8084 153.427 16.8084C152.983 16.8084 152.63 16.9523 152.367 17.2402C152.104 17.5218 151.972 17.9317 151.972 18.4699V21.3047H151.118V16.1607H151.972V16.9023C152.141 16.6332 152.367 16.4267 152.648 16.2827C152.936 16.1388 153.252 16.0668 153.596 16.0668C154.028 16.0668 154.41 16.1638 154.742 16.3578C155.073 16.5518 155.32 16.8366 155.483 17.212C155.627 16.8491 155.865 16.5675 156.197 16.3672C156.528 16.167 156.897 16.0668 157.304 16.0668ZM161.23 15.3253C161.068 15.3253 160.93 15.269 160.817 15.1563C160.705 15.0437 160.648 14.906 160.648 14.7433C160.648 14.5806 160.705 14.4429 160.817 14.3303C160.93 14.2176 161.068 14.1613 161.23 14.1613C161.387 14.1613 161.518 14.2176 161.625 14.3303C161.737 14.4429 161.794 14.5806 161.794 14.7433C161.794 14.906 161.737 15.0437 161.625 15.1563C161.518 15.269 161.387 15.3253 161.23 15.3253ZM161.643 16.1607V21.3047H160.789V16.1607H161.643ZM163.738 20.6007H166.263V21.3047H162.761V20.6007L165.258 16.8553H162.78V16.1607H166.244V16.8553L163.738 20.6007ZM172.064 18.5356C172.064 18.6983 172.055 18.8704 172.036 19.0518H167.925C167.956 19.5587 168.128 19.9561 168.441 20.244C168.76 20.5256 169.145 20.6664 169.596 20.6664C169.965 20.6664 170.272 20.5819 170.516 20.4129C170.766 20.2377 170.941 20.0062 171.041 19.7183H171.961C171.824 20.2127 171.548 20.6163 171.135 20.9292C170.722 21.2359 170.209 21.3892 169.596 21.3892C169.108 21.3892 168.67 21.2797 168.282 21.0606C167.9 20.8416 167.599 20.5318 167.38 20.1313C167.161 19.7246 167.052 19.2552 167.052 18.7233C167.052 18.1914 167.158 17.7252 167.371 17.3247C167.584 16.9242 167.881 16.6175 168.263 16.4048C168.651 16.1857 169.095 16.0762 169.596 16.0762C170.084 16.0762 170.516 16.1826 170.891 16.3954C171.267 16.6081 171.554 16.9023 171.755 17.2777C171.961 17.647 172.064 18.0662 172.064 18.5356ZM171.182 18.3572C171.182 18.0318 171.11 17.7533 170.966 17.5218C170.822 17.284 170.625 17.1056 170.375 16.9867C170.131 16.8616 169.859 16.799 169.558 16.799C169.126 16.799 168.757 16.9367 168.451 17.212C168.15 17.4874 167.978 17.8691 167.934 18.3572H171.182ZM174.046 16.9961C174.196 16.702 174.409 16.4736 174.684 16.3109C174.966 16.1482 175.307 16.0668 175.708 16.0668V16.9492H175.482C174.525 16.9492 174.046 17.4686 174.046 18.5074V21.3047H173.192V16.1607H174.046V16.9961ZM184.603 14.7621L182.134 21.3047H181.149L178.68 14.7621H179.59L181.646 20.4036L183.702 14.7621H184.603ZM187.676 15.2971V14.518H189.441V21.3047H188.577V15.2971H187.676ZM191.321 21.361C191.158 21.361 191.021 21.3047 190.908 21.192C190.795 21.0794 190.739 20.9417 190.739 20.779C190.739 20.6163 190.795 20.4786 190.908 20.366C191.021 20.2534 191.158 20.197 191.321 20.197C191.478 20.197 191.609 20.2534 191.715 20.366C191.828 20.4786 191.884 20.6163 191.884 20.779C191.884 20.9417 191.828 21.0794 191.715 21.192C191.609 21.3047 191.478 21.361 191.321 21.361ZM192.879 17.8409C192.879 16.7646 193.054 15.926 193.405 15.3253C193.755 14.7183 194.368 14.4148 195.244 14.4148C196.114 14.4148 196.724 14.7183 197.075 15.3253C197.425 15.926 197.601 16.7646 197.601 17.8409C197.601 18.9361 197.425 19.7872 197.075 20.3942C196.724 21.0012 196.114 21.3047 195.244 21.3047C194.368 21.3047 193.755 21.0012 193.405 20.3942C193.054 19.7872 192.879 18.9361 192.879 17.8409ZM196.756 17.8409C196.756 17.2965 196.718 16.8366 196.643 16.4611C196.574 16.0794 196.427 15.7727 196.202 15.5412C195.983 15.3096 195.664 15.1939 195.244 15.1939C194.819 15.1939 194.494 15.3096 194.268 15.5412C194.049 15.7727 193.902 16.0794 193.827 16.4611C193.758 16.8366 193.724 17.2965 193.724 17.8409C193.724 18.4042 193.758 18.8766 193.827 19.2584C193.902 19.6401 194.049 19.9467 194.268 20.1783C194.494 20.4098 194.819 20.5256 195.244 20.5256C195.664 20.5256 195.983 20.4098 196.202 20.1783C196.427 19.9467 196.574 19.6401 196.643 19.2584C196.718 18.8766 196.756 18.4042 196.756 17.8409Z" fill="white"/>
<rect x="117.188" y="7.17773" width="0.937501" height="20.5078" fill="white"/>
<rect x="0.480008" y="0.480008" width="209.04" height="31.8525" rx="1.44002" stroke="white" stroke-width="0.960016"/>
</svg>
